<svg version="1.1" id="Layer_1" xmlns="http://www.w3.org/2000/svg" xmlns:xlink="http://www.w3.org/1999/xlink" x="0px" y="0px"
	 width="100%" viewBox="0 0 933 354" enable-background="new 0 0 933 354" xml:space="preserve">
<path fill="#FFFFFF" opacity="1.000000" stroke="none" 
	d="
M720.000000,355.000000 
	C480.000000,355.000000 240.500000,355.000000 1.000000,355.000000 
	C1.000000,237.000000 1.000000,119.000000 1.000000,1.000000 
	C312.000000,1.000000 623.000000,1.000000 934.000000,1.000000 
	C934.000000,119.000000 934.000000,237.000000 934.000000,355.000000 
	C862.833313,355.000000 791.666687,355.000000 720.000000,355.000000 
M201.728363,24.380325 
	C195.233673,24.406342 188.738922,24.423719 182.244293,24.460083 
	C166.168747,24.550093 150.412399,26.760782 135.067184,31.638914 
	C65.720596,53.683712 21.036430,118.131866 24.853281,190.802216 
	C27.010981,231.883408 43.045071,266.979797 72.487282,295.429932 
	C107.256958,329.027985 149.502548,342.737122 198.448074,339.795807 
	C200.113892,339.810272 201.779709,339.837402 203.445526,339.837433 
	C386.404602,339.838745 569.363708,339.880524 752.322632,339.721619 
	C762.246582,339.713013 772.302368,338.763672 782.071167,337.001587 
	C861.702454,322.637695 922.458130,246.718216 908.637268,157.792099 
	C896.518188,79.815796 830.620300,24.502922 751.715088,24.496191 
	C570.588928,24.480740 389.462769,24.489964 208.336609,24.507162 
	C206.356018,24.507349 204.375458,24.749001 201.728363,24.380325 
z"/>
<path fill="#010101" opacity="1.000000" stroke="none" 
	d="
M202.394882,24.877930 
	C204.375458,24.749001 206.356018,24.507349 208.336609,24.507162 
	C389.462769,24.489964 570.588928,24.480740 751.715088,24.496191 
	C830.620300,24.502922 896.518188,79.815796 908.637268,157.792099 
	C922.458130,246.718216 861.702454,322.637695 782.071167,337.001587 
	C772.302368,338.763672 762.246582,339.713013 752.322632,339.721619 
	C569.363708,339.880524 386.404602,339.838745 203.445526,339.837433 
	C201.779709,339.837402 200.113892,339.810272 198.405655,339.564667 
	C205.447906,338.120758 212.651398,337.376160 219.596436,335.613281 
	C248.026917,328.396759 272.753052,314.357788 293.687164,293.855774 
	C307.754486,280.078857 318.611115,263.909943 326.465881,245.902222 
	C333.244110,230.362473 338.106049,214.200241 339.330109,196.778137 
	C339.418518,186.690277 339.225159,176.917862 339.018921,166.699371 
	C338.997559,165.088104 339.140686,163.898529 338.958008,162.761292 
	C335.716003,142.581650 329.958496,123.304558 319.904938,105.304100 
	C309.662292,86.965111 296.101288,71.466583 279.931610,58.463306 
	C261.406128,43.565571 240.231308,33.635647 216.777649,28.838392 
	C211.916748,27.844135 207.185745,26.214649 202.394882,24.877930 
M540.846008,113.213905 
	C544.157227,119.767731 548.498535,120.705589 557.458191,117.397171 
	C559.667358,118.098785 561.933228,118.450699 564.153076,118.261459 
	C564.429504,118.237892 564.768311,115.298332 564.532471,113.795586 
	C564.205933,111.714882 563.092896,109.752747 562.804077,107.672173 
	C562.396301,104.733780 562.807190,101.654266 562.196045,98.777878 
	C561.217163,94.170792 556.883850,91.859909 551.277344,92.425041 
	C545.250305,93.032570 542.633240,95.413986 542.110962,101.985939 
	C544.786377,100.772758 546.847656,99.610893 549.055176,98.908707 
	C550.830322,98.344070 552.886414,97.880638 554.611816,98.274574 
	C555.462708,98.468842 555.847839,100.703102 556.524597,102.192146 
	C541.319092,104.761337 541.319092,104.761337 539.391052,112.903038 
	C534.447998,113.874275 532.780273,111.686752 533.318481,106.927299 
	C533.609009,104.357948 533.370117,101.728729 533.370117,98.957527 
	C535.658630,98.791199 537.427185,98.662659 539.301880,98.526405 
	C539.301880,96.570915 539.301880,94.903496 539.301880,93.277092 
	C537.105286,93.096802 535.333191,92.951355 533.527161,92.803123 
	C533.400818,90.237915 533.288940,87.965279 533.157471,85.295448 
	C530.917053,85.840775 529.069397,86.290497 527.117554,86.765587 
	C527.019409,88.961861 526.933044,90.895798 526.847107,92.819748 
	C525.134155,93.047035 523.719421,93.234756 522.028320,93.459152 
	C522.146606,95.285614 522.247864,96.849022 522.350220,98.429855 
	C524.112915,98.654526 525.493347,98.830467 526.977966,99.019691 
	C526.977966,102.595245 526.976074,105.745636 526.978271,108.896027 
	C526.984619,117.939911 530.664124,120.590416 539.691162,117.953255 
	C539.848267,116.356781 540.009216,114.721100 540.846008,113.213905 
M663.006409,190.174042 
	C663.006409,189.098801 663.006409,188.023575 663.006409,185.454895 
	C664.574158,187.944504 665.327393,189.144302 666.084229,190.341873 
	C681.096802,214.097137 696.090149,237.864655 711.172791,261.575317 
	C712.049133,262.952911 713.607422,264.784515 714.922119,264.846802 
	C721.833008,265.174194 728.767700,265.000031 735.700928,265.000031 
	C735.700928,225.597733 735.700928,186.840515 735.700928,147.906815 
	C728.568848,147.906815 721.638367,147.906815 714.003662,147.906815 
	C714.003662,173.550064 714.003662,198.949493 714.003662,225.659821 
	C697.740967,199.943222 682.299805,175.482452 666.768372,151.079178 
	C665.889893,149.698975 664.312012,147.875076 662.988892,147.814957 
	C655.879456,147.491943 648.747559,147.662292 641.657227,147.662292 
	C641.657227,187.077881 641.657227,225.948868 641.657227,264.721191 
	C648.944946,264.721191 655.867798,264.721191 663.006348,264.721191 
	C663.006348,239.967987 663.006348,215.499466 663.006409,190.174042 
M477.450500,147.663986 
	C461.001709,147.663986 444.552887,147.663986 427.886719,147.663986 
	C427.886719,187.046677 427.886719,225.950729 427.886719,264.631653 
	C448.037689,264.631653 467.983643,265.087891 487.892365,264.425049 
	C496.858521,264.126526 504.920746,259.934753 510.846558,252.709671 
	C523.435242,237.360794 519.616333,216.463486 502.035980,204.423141 
	C513.344971,197.360855 516.882629,186.756439 514.872070,174.271942 
	C512.863037,161.797333 505.184723,153.669022 493.123749,150.120483 
	C488.394318,148.729004 483.337524,148.450119 477.450500,147.663986 
M576.865601,165.331146 
	C590.635559,164.949493 597.545166,170.320374 601.658264,184.589569 
	C608.908691,184.589569 616.150330,184.589569 623.717346,184.589569 
	C623.196777,181.969009 622.870056,179.666092 622.275574,177.434494 
	C617.122803,158.092361 600.737854,145.862808 579.291931,145.294220 
	C558.892639,144.753387 540.382385,157.139755 534.210083,175.935501 
	C529.398682,190.587036 529.956909,205.721893 530.971436,220.877579 
	C533.012573,251.371262 554.449219,269.793671 584.805298,266.939850 
	C605.629211,264.982147 622.568848,247.706802 623.202271,227.541595 
	C615.944397,227.541595 608.693726,227.541595 601.488647,227.541595 
	C598.950806,239.391571 593.313965,245.505539 583.551086,247.163300 
	C568.799316,249.668182 555.994446,241.241501 554.222046,225.839813 
	C552.772644,213.245270 552.917419,200.260269 554.143250,187.621780 
	C555.422485,174.432770 563.061584,167.796021 576.865601,165.331146 
M597.086304,116.984398 
	C599.040405,117.744911 600.994446,118.505417 603.293579,119.400230 
	C603.293579,111.827843 603.713379,105.507706 603.164795,99.272766 
	C602.700684,93.998009 598.125244,91.356369 592.981995,92.778290 
	C591.007935,93.324051 589.226318,94.566254 588.133667,95.106857 
	C585.305054,94.041046 583.036621,92.478966 580.773193,92.486206 
	C576.543396,92.499725 572.316528,93.424095 567.850952,94.000114 
	C567.850952,101.728233 567.850952,110.005844 567.850952,118.439270 
	C569.966187,118.439270 571.846497,118.439270 574.190247,118.439270 
	C574.190247,113.171722 573.718567,108.128769 574.428711,103.258133 
	C574.702271,101.382050 577.663269,99.897804 579.399719,98.235016 
	C580.353577,100.085922 581.970459,101.881454 582.130554,103.798645 
	C582.528259,108.560585 582.261353,113.378036 582.261353,118.315842 
	C584.755554,118.315842 586.759216,118.315842 589.011536,118.315842 
	C589.011536,112.905884 588.586121,107.856903 589.236694,102.950592 
	C589.471985,101.176163 592.284668,99.743484 593.921265,98.154846 
	C594.970825,99.795822 596.748840,101.362152 596.926208,103.092514 
	C597.365540,107.379837 597.073059,111.742149 597.086304,116.984398 
M442.619843,84.084236 
	C439.766663,83.477676 438.959900,85.394897 438.216705,87.543747 
	C435.621735,95.046936 432.945953,102.522209 430.352692,110.025993 
	C429.414795,112.739929 428.622955,115.504364 427.800079,118.132072 
	C434.310822,120.738998 435.221924,116.180649 436.436920,112.197784 
	C440.945740,112.197784 445.223022,112.197784 449.430603,112.197784 
	C452.154297,119.157066 452.154297,119.157066 458.698547,118.172958 
	C454.906097,107.373100 451.219604,96.631935 447.255768,85.994110 
	C446.892548,85.019302 444.755890,84.705307 442.619843,84.084236 
M700.514648,93.012199 
	C693.633606,91.577469 689.045349,93.867325 687.028931,99.742638 
	C684.433533,107.304932 686.817078,115.517845 692.445862,118.153328 
	C693.469788,118.632736 694.674988,119.022194 695.778992,118.981102 
	C700.266113,118.814056 704.746460,118.463173 709.450562,118.166107 
	C709.450562,106.727242 709.450562,95.202911 709.450562,83.545364 
	C707.255493,83.545364 705.358704,83.545364 703.053101,83.545364 
	C703.053101,86.620064 703.117432,89.412910 702.975281,92.195190 
	C702.956604,92.562126 701.883362,92.875191 700.514648,93.012199 
M606.388367,104.765671 
	C607.105286,107.787804 607.328369,111.049515 608.651733,113.777443 
	C610.779419,118.163223 615.543701,119.908051 621.098755,118.916031 
	C625.397339,118.148399 628.122803,115.628342 629.207520,110.273346 
	C626.511902,110.813560 624.006897,110.643478 622.399109,111.762581 
	C617.375610,115.259186 614.673096,114.347275 613.255493,107.749176 
	C618.765381,107.749176 624.190613,107.749176 629.568481,107.749176 
	C630.218689,99.917343 627.667114,94.909912 622.362427,93.122414 
	C614.501770,90.473640 608.318787,94.714142 606.388367,104.765671 
M712.633789,107.153671 
	C713.794800,114.805351 717.473267,118.778770 723.619507,119.020241 
	C730.250305,119.280746 733.243469,117.181221 735.011414,110.337242 
	C732.586853,110.817940 730.074097,110.638954 728.469543,111.759872 
	C723.442078,115.271935 720.835022,114.420067 719.264099,107.807961 
	C724.763000,107.807961 730.172424,107.807961 735.526245,107.807961 
	C736.382385,99.582336 733.563477,94.480873 727.558716,92.904602 
	C719.026855,90.664986 713.021851,96.073952 712.633789,107.153671 
M654.738220,114.186462 
	C654.736816,109.858353 654.865356,105.525314 654.701477,101.203369 
	C654.492371,95.688934 650.973206,92.063271 645.951050,92.381073 
	C641.774658,92.645348 637.630615,93.420395 633.298401,93.992142 
	C633.298401,101.775482 633.298401,110.176460 633.298401,118.490921 
	C635.405640,118.490921 637.175415,118.490921 639.066040,118.490921 
	C639.190247,117.624443 639.335876,116.986000 639.365356,116.342247 
	C639.570190,111.863808 639.296204,107.292740 640.170044,102.951500 
	C640.505554,101.284813 643.440613,100.141388 645.191162,98.759529 
	C646.151367,100.382965 647.811218,101.953186 647.939453,103.639893 
	C648.312378,108.543213 648.071716,113.493195 648.071716,119.280006 
	C651.071716,117.944824 655.249084,120.787521 654.738220,114.186462 
M472.100403,110.926201 
	C472.765198,115.537209 474.977783,118.948463 479.983398,118.942291 
	C484.467682,118.936768 488.875000,116.794563 493.554016,119.102112 
	C493.554016,109.925110 493.554016,101.573105 493.554016,93.260612 
	C491.376831,93.260612 489.587036,93.260612 487.180450,93.260612 
	C487.180450,98.225845 487.272003,103.006287 487.146851,107.781052 
	C487.069214,110.742638 485.797089,113.071259 482.418915,113.003571 
	C478.953400,112.934128 478.735168,110.322090 478.744873,107.670105 
	C478.762360,102.897079 478.749756,98.123955 478.749756,93.364357 
	C476.223480,93.364357 474.317200,93.364357 472.066864,93.364357 
	C472.066864,99.118179 472.066864,104.578926 472.100403,110.926201 
M520.737915,108.520378 
	C520.725647,105.861130 520.904236,103.184196 520.659729,100.546471 
	C520.207092,95.661873 516.636536,91.670815 512.269531,92.510498 
	C507.896973,93.351250 503.646362,93.765831 499.205750,92.992821 
	C499.205750,101.828667 499.205750,110.081619 499.205750,118.404472 
	C501.319275,118.404472 503.183350,118.404472 505.094299,118.404472 
	C505.360107,113.130287 505.207458,108.108170 506.073761,103.268433 
	C506.383148,101.540039 508.990051,99.302559 510.845703,98.973137 
	C514.160645,98.384644 514.055603,101.454033 514.067200,103.804558 
	C514.091370,108.721748 514.074524,113.639137 514.074524,118.322159 
	C516.715515,118.322159 518.605042,118.322159 520.737854,118.322159 
	C520.737854,115.099518 520.737854,112.288292 520.737915,108.520378 
M661.819214,115.264778 
	C664.888550,120.116058 669.282532,119.131096 673.666870,118.220848 
	C673.666870,116.242615 673.666870,114.527290 673.666870,112.811737 
	C666.802246,113.057037 665.624512,109.984688 668.049072,98.974632 
	C669.794983,98.789322 671.564880,98.601471 673.424805,98.404060 
	C673.424805,96.578484 673.424805,95.012978 673.424805,93.256958 
	C671.359009,93.131752 669.571960,93.023445 667.600281,92.903946 
	C667.426086,90.347504 667.263672,87.964035 667.078430,85.246315 
	C664.761230,85.860321 662.911133,86.350540 660.939209,86.873055 
	C660.939209,88.983253 660.939209,90.787384 660.939209,92.846771 
	C659.380005,93.029236 657.991699,93.191704 656.275635,93.392525 
	C656.368347,95.249084 656.446289,96.809586 656.527466,98.435379 
	C658.186340,98.647255 659.458069,98.809677 661.402954,99.058083 
	C661.402954,104.275223 661.402954,109.403931 661.819214,115.264778 
M460.992249,104.520363 
	C460.992188,108.498604 460.717834,112.500900 461.064117,116.448769 
	C461.462738,120.993271 460.476227,123.943649 455.039490,123.294479 
	C455.134308,125.146622 455.208710,126.599892 455.279144,127.975403 
	C463.669983,130.470642 467.293854,127.951729 467.341003,119.799202 
	C467.357300,116.981384 467.343048,114.163376 467.342987,111.345459 
	C467.342896,105.300980 467.342926,99.256500 467.342926,93.031319 
	C464.764221,93.145081 463.019806,93.222038 460.992249,93.311478 
	C460.992249,96.947388 460.992249,100.238548 460.992249,104.520363 
M465.376648,90.045219 
	C470.186157,88.973267 466.819794,85.798920 467.469818,83.591675 
	C464.983856,83.591675 462.928223,83.591675 460.827454,83.591675 
	C460.827454,85.891296 460.827454,87.833145 460.827454,90.046410 
	C462.210693,90.046410 463.358582,90.046410 465.376648,90.045219 
z"/>
<path fill="#CB0530" opacity="1.000000" stroke="none" 
	d="
M202.061615,24.629128 
	C207.185745,26.214649 211.916748,27.844135 216.777649,28.838392 
	C240.231308,33.635647 261.406128,43.565571 279.931610,58.463306 
	C296.101288,71.466583 309.662292,86.965111 319.904938,105.304100 
	C329.958496,123.304558 335.716003,142.581650 338.958008,162.761292 
	C339.140686,163.898529 338.997559,165.088104 338.997681,167.153564 
	C339.008972,177.733719 339.028625,187.413651 339.048279,197.093567 
	C338.106049,214.200241 333.244110,230.362473 326.465881,245.902222 
	C318.611115,263.909943 307.754486,280.078857 293.687164,293.855774 
	C272.753052,314.357788 248.026917,328.396759 219.596436,335.613281 
	C212.651398,337.376160 205.447906,338.120758 197.930084,339.399109 
	C149.502548,342.737122 107.256958,329.027985 72.487282,295.429932 
	C43.045071,266.979797 27.010981,231.883408 24.853281,190.802216 
	C21.036430,118.131866 65.720596,53.683712 135.067184,31.638914 
	C150.412399,26.760782 166.168747,24.550093 182.244293,24.460083 
	C188.738922,24.423719 195.233673,24.406342 202.061615,24.629128 
M98.868279,204.705765 
	C99.501472,206.019455 99.961205,207.456238 100.793213,208.628860 
	C121.777534,238.204086 147.068130,263.573181 175.999847,285.356842 
	C177.099335,286.184692 178.640839,286.425476 180.215195,287.516602 
	C181.778229,290.091248 181.778229,290.091248 183.704147,288.033722 
	C185.260391,287.121582 186.908386,286.335388 188.359131,285.278442 
	C210.649628,269.038422 230.134613,249.794266 248.016586,228.910873 
	C253.836792,222.113770 258.969635,214.721024 264.245117,207.475632 
	C264.771790,206.752319 264.099274,205.155853 263.976990,204.018982 
	C263.976990,204.018982 264.030090,204.032166 264.676727,203.495346 
	C263.912292,202.214493 263.232361,200.873550 262.370880,199.661682 
	C245.669556,176.166794 225.735458,155.650391 203.883713,136.992386 
	C197.353073,131.416245 189.987823,126.817612 182.889969,121.178047 
	C181.928284,121.761375 180.966614,122.344696 179.280258,122.950661 
	C176.923981,124.457336 174.303024,125.670441 172.253937,127.517830 
	C157.813019,140.537308 142.812958,153.034363 129.340469,166.999664 
	C118.331612,178.411240 109.190773,191.624924 98.868279,204.705765 
M144.602264,92.693649 
	C145.541245,94.540367 146.480240,96.387085 147.896729,99.172897 
	C149.692123,97.196159 150.861145,95.909065 152.030167,94.621971 
	C150.831680,92.054008 150.012741,89.301414 151.003235,87.605721 
	C153.026154,84.142487 156.682892,83.514084 160.197311,84.256416 
	C161.048584,87.410812 161.770813,90.087006 162.493027,92.763199 
	C163.159470,92.782799 163.825928,92.802399 164.492371,92.821999 
	C165.155350,90.707161 166.096039,88.633583 166.417786,86.468048 
	C166.931076,83.013222 170.655731,80.126610 174.859634,80.215614 
	C178.863998,80.300407 179.893005,82.551292 179.424362,86.090813 
	C179.320328,86.876556 179.521805,87.702744 179.594391,88.666786 
	C181.500778,88.666786 183.182266,88.666786 185.130066,88.666786 
	C185.130066,86.017578 185.130066,83.718430 185.130066,81.513176 
	C191.619019,79.345436 197.232681,81.559341 197.936432,86.135529 
	C198.296509,88.476929 199.364761,90.709412 200.112930,92.991119 
	C200.750412,92.862671 201.387878,92.734230 202.025345,92.605782 
	C202.668350,89.934639 203.311356,87.263496 204.298065,83.164558 
	C207.369583,84.539169 210.939697,85.244362 213.023270,87.391838 
	C214.351395,88.760689 213.476776,92.266716 213.644501,96.047318 
	C213.758942,96.147545 214.960251,97.199631 216.155457,98.246368 
	C221.603928,92.236679 221.413254,85.275558 215.206161,81.412903 
	C212.183289,79.531792 208.068832,79.393211 204.439423,78.502861 
	C202.338715,77.987534 200.179367,77.678658 198.116119,77.048622 
	C187.715302,73.872574 177.291916,74.437035 166.842422,76.706367 
	C166.689072,76.739677 166.568130,76.920372 166.414627,76.955078 
	C164.142731,77.468559 161.832108,78.520454 159.599976,78.375771 
	C150.540955,77.788582 144.217010,83.267616 144.602264,92.693649 
M195.655975,113.548126 
	C198.768921,114.553993 201.881866,115.559860 205.119324,116.605957 
	C206.108185,115.059555 206.965103,113.719498 208.047272,112.027168 
	C190.686295,104.330612 173.783890,104.293221 156.233780,112.054840 
	C157.502625,113.938423 158.469788,115.374176 159.460510,116.844917 
	C171.093124,111.607674 182.795349,110.459984 195.655975,113.548126 
M162.954834,105.558411 
	C166.570953,104.762169 170.187057,103.965935 174.354324,103.048340 
	C171.390549,99.764328 168.859650,96.959969 165.889694,93.669113 
	C164.608475,97.900284 163.526535,101.473343 162.954834,105.558411 
M176.447800,102.181961 
	C180.279968,102.541954 184.112137,102.901939 188.837936,103.345871 
	C186.362274,99.054794 184.489929,95.809464 182.329941,92.065544 
	C180.179871,95.513985 178.315369,98.504417 176.447800,102.181961 
M193.468628,104.213600 
	C194.975418,104.496162 196.490494,105.033890 197.986511,104.985191 
	C199.321289,104.941742 200.634964,104.250198 201.957962,103.844658 
	C200.730804,100.654556 199.503647,97.464447 198.185654,94.038170 
	C195.613449,96.583145 193.183334,98.849289 191.013412,101.341927 
	C190.789017,101.599693 192.113602,103.205887 193.468628,104.213600 
M149.827499,102.314575 
	C153.568176,108.223083 156.645554,109.264305 160.038239,105.712044 
	C157.564209,103.681450 155.158844,101.554924 152.536484,99.742371 
	C152.198212,99.508568 150.735748,100.901245 149.827499,102.314575 
M208.866867,107.686554 
	C210.748917,105.094543 216.449127,104.541061 213.374847,98.929291 
	C210.134201,101.283943 207.080795,103.502556 203.149338,106.359161 
	C205.358032,107.054504 206.757660,107.495132 208.866867,107.686554 
M90.033363,201.655807 
	C87.161240,203.084091 86.552345,205.229279 88.661774,207.597763 
	C89.338966,208.358093 91.326492,208.786362 92.183441,208.342087 
	C93.275711,207.775803 94.740753,205.704727 94.434326,205.104156 
	C93.680412,203.626541 92.005051,202.619064 90.033363,201.655807 
M271.917786,208.343628 
	C273.539337,207.466675 275.316406,206.763916 276.654419,205.569366 
	C276.930084,205.323227 275.865631,202.709793 274.877014,202.157761 
	C273.891479,201.607452 271.094452,202.108185 271.045288,202.438660 
	C270.775604,204.251709 271.106201,206.154007 271.917786,208.343628 
M185.614243,69.142982 
	C184.772522,67.445389 184.162918,65.533020 182.928421,64.198860 
	C182.613617,63.858669 179.832840,65.020142 179.087769,66.109222 
	C178.509094,66.955055 179.110687,69.852348 179.575714,69.947815 
	C181.366821,70.315552 183.313904,69.923660 185.614243,69.142982 
M179.160583,295.061890 
	C179.831116,296.786469 180.303482,298.648499 181.328888,300.126953 
	C181.550720,300.446777 184.428909,299.742401 184.890396,298.874939 
	C185.494415,297.739685 185.359772,294.948425 184.752045,294.683502 
	C183.301773,294.051208 181.387726,294.482666 179.160583,295.061890 
z"/>
<path fill="#FBFBFB" opacity="1.000000" stroke="none" 
	d="
M663.006348,190.602493 
	C663.006348,215.499466 663.006348,239.967987 663.006348,264.721191 
	C655.867798,264.721191 648.944946,264.721191 641.657227,264.721191 
	C641.657227,225.948868 641.657227,187.077881 641.657227,147.662292 
	C648.747559,147.662292 655.879456,147.491943 662.988892,147.814957 
	C664.312012,147.875076 665.889893,149.698975 666.768372,151.079178 
	C682.299805,175.482452 697.740967,199.943222 714.003662,225.659821 
	C714.003662,198.949493 714.003662,173.550064 714.003662,147.906815 
	C721.638367,147.906815 728.568848,147.906815 735.700928,147.906815 
	C735.700928,186.840515 735.700928,225.597733 735.700928,265.000031 
	C728.767700,265.000031 721.833008,265.174194 714.922119,264.846802 
	C713.607422,264.784515 712.049133,262.952911 711.172791,261.575317 
	C696.090149,237.864655 681.096802,214.097137 666.084229,190.341873 
	C665.327393,189.144302 664.574158,187.944504 663.006409,185.454895 
	C663.006409,188.023575 663.006409,189.098801 663.006348,190.602493 
z"/>
<path fill="#FDFDFD" opacity="1.000000" stroke="none" 
	d="
M477.940186,147.664276 
	C483.337524,148.450119 488.394318,148.729004 493.123749,150.120483 
	C505.184723,153.669022 512.863037,161.797333 514.872070,174.271942 
	C516.882629,186.756439 513.344971,197.360855 502.035980,204.423141 
	C519.616333,216.463486 523.435242,237.360794 510.846558,252.709671 
	C504.920746,259.934753 496.858521,264.126526 487.892365,264.425049 
	C467.983643,265.087891 448.037689,264.631653 427.886719,264.631653 
	C427.886719,225.950729 427.886719,187.046677 427.886719,147.663986 
	C444.552887,147.663986 461.001709,147.663986 477.940186,147.664276 
M472.469910,213.678619 
	C464.877716,213.678619 457.285522,213.678619 449.682404,213.678619 
	C449.682404,224.679993 449.682404,235.053299 449.682404,245.679916 
	C458.015167,245.679916 465.991272,245.830338 473.957428,245.614182 
	C477.738403,245.511566 481.636292,245.175720 485.242065,244.124863 
	C492.278595,242.074219 495.988159,236.873550 495.942413,230.213562 
	C495.890198,222.613541 491.938202,216.835922 484.785065,214.951828 
	C481.149139,213.994141 477.240845,214.070465 472.469910,213.678619 
M461.518066,166.319946 
	C457.579468,166.319946 453.640869,166.319946 449.661407,166.319946 
	C449.661407,176.277283 449.661407,185.647079 449.661407,195.070358 
	C459.965607,195.070358 469.942810,195.399750 479.887054,194.968567 
	C488.192078,194.608475 492.969086,189.436752 493.266052,181.742462 
	C493.578278,173.654480 489.186035,167.997406 480.915924,166.996124 
	C474.842316,166.260773 468.649597,166.509674 461.518066,166.319946 
z"/>
<path fill="#FAFAFA" opacity="1.000000" stroke="none" 
	d="
M576.452515,165.342377 
	C563.061584,167.796021 555.422485,174.432770 554.143250,187.621780 
	C552.917419,200.260269 552.772644,213.245270 554.222046,225.839813 
	C555.994446,241.241501 568.799316,249.668182 583.551086,247.163300 
	C593.313965,245.505539 598.950806,239.391571 601.488647,227.541595 
	C608.693726,227.541595 615.944397,227.541595 623.202271,227.541595 
	C622.568848,247.706802 605.629211,264.982147 584.805298,266.939850 
	C554.449219,269.793671 533.012573,251.371262 530.971436,220.877579 
	C529.956909,205.721893 529.398682,190.587036 534.210083,175.935501 
	C540.382385,157.139755 558.892639,144.753387 579.291931,145.294220 
	C600.737854,145.862808 617.122803,158.092361 622.275574,177.434494 
	C622.870056,179.666092 623.196777,181.969009 623.717346,184.589569 
	C616.150330,184.589569 608.908691,184.589569 601.658264,184.589569 
	C597.545166,170.320374 590.635559,164.949493 576.452515,165.342377 
z"/>
<path fill="#F0F0F0" opacity="1.000000" stroke="none" 
	d="
M597.080444,116.529366 
	C597.073059,111.742149 597.365540,107.379837 596.926208,103.092514 
	C596.748840,101.362152 594.970825,99.795822 593.921265,98.154854 
	C592.284668,99.743484 589.471985,101.176163 589.236694,102.950592 
	C588.586121,107.856903 589.011536,112.905884 589.011536,118.315842 
	C586.759216,118.315842 584.755554,118.315842 582.261353,118.315842 
	C582.261353,113.378036 582.528259,108.560585 582.130554,103.798645 
	C581.970459,101.881454 580.353577,100.085922 579.399719,98.235016 
	C577.663269,99.897804 574.702271,101.382050 574.428711,103.258133 
	C573.718567,108.128769 574.190247,113.171722 574.190247,118.439270 
	C571.846497,118.439270 569.966187,118.439270 567.850952,118.439270 
	C567.850952,110.005844 567.850952,101.728233 567.850952,94.000114 
	C572.316528,93.424095 576.543396,92.499725 580.773193,92.486206 
	C583.036621,92.478966 585.305054,94.041046 588.133667,95.106857 
	C589.226318,94.566254 591.007935,93.324051 592.981995,92.778290 
	C598.125244,91.356369 602.700684,93.998009 603.164795,99.272766 
	C603.713379,105.507706 603.293579,111.827843 603.293579,119.400230 
	C600.994446,118.505417 599.040405,117.744911 597.080444,116.529366 
z"/>
<path fill="#F4F4F4" opacity="1.000000" stroke="none" 
	d="
M443.031311,84.084343 
	C444.755890,84.705307 446.892548,85.019302 447.255768,85.994110 
	C451.219604,96.631935 454.906097,107.373100 458.698547,118.172958 
	C452.154297,119.157066 452.154297,119.157066 449.430603,112.197784 
	C445.223022,112.197784 440.945740,112.197784 436.436920,112.197784 
	C435.221924,116.180649 434.310822,120.738998 427.800079,118.132072 
	C428.622955,115.504364 429.414795,112.739929 430.352692,110.025993 
	C432.945953,102.522209 435.621735,95.046936 438.216705,87.543747 
	C438.959900,85.394897 439.766663,83.477676 443.031311,84.084343 
M444.060791,95.752953 
	C443.420715,95.526802 442.780609,95.300644 442.140503,95.074478 
	C441.026031,98.596375 439.911530,102.118263 438.773132,105.715614 
	C441.879883,105.715614 444.432007,105.715614 447.441010,105.715614 
	C446.272034,102.374847 445.241608,99.430069 444.060791,95.752953 
z"/>
<path fill="#EDEDED" opacity="1.000000" stroke="none" 
	d="
M700.906616,93.112701 
	C701.883362,92.875191 702.956604,92.562126 702.975281,92.195190 
	C703.117432,89.412910 703.053101,86.620064 703.053101,83.545364 
	C705.358704,83.545364 707.255493,83.545364 709.450562,83.545364 
	C709.450562,95.202911 709.450562,106.727242 709.450562,118.166107 
	C704.746460,118.463173 700.266113,118.814056 695.778992,118.981102 
	C694.674988,119.022194 693.469788,118.632736 692.445862,118.153328 
	C686.817078,115.517845 684.433533,107.304932 687.028931,99.742638 
	C689.045349,93.867325 693.633606,91.577469 700.906616,93.112701 
M693.035889,108.988693 
	C694.735962,110.508072 696.233582,112.642944 698.218628,113.295952 
	C699.264221,113.639900 702.368530,111.477829 702.448242,110.304893 
	C702.691528,106.724899 702.216003,102.997849 701.304016,99.515610 
	C701.108093,98.767609 697.551025,98.014297 696.153503,98.636414 
	C692.307617,100.348480 692.669922,104.145485 692.886230,107.647705 
	C692.896423,107.812164 692.915466,107.976067 693.035889,108.988693 
z"/>
<path fill="#EFF0F0" opacity="1.000000" stroke="none" 
	d="
M540.315430,113.226250 
	C541.319092,104.761337 541.319092,104.761337 556.524597,102.192146 
	C555.847839,100.703102 555.462708,98.468842 554.611816,98.274574 
	C552.886414,97.880638 550.830322,98.344070 549.055176,98.908707 
	C546.847656,99.610893 544.786377,100.772758 542.110962,101.985939 
	C542.633240,95.413986 545.250305,93.032570 551.277344,92.425041 
	C556.883850,91.859909 561.217163,94.170792 562.196045,98.777878 
	C562.807190,101.654266 562.396301,104.733780 562.804077,107.672173 
	C563.092896,109.752747 564.205933,111.714882 564.532471,113.795586 
	C564.768311,115.298332 564.429504,118.237892 564.153076,118.261459 
	C561.933228,118.450699 559.667358,118.098785 557.458191,117.397171 
	C548.498535,120.705589 544.157227,119.767731 540.546021,113.183182 
	C540.246094,113.152451 540.315430,113.226250 540.315430,113.226250 
M552.643188,107.844536 
	C551.504272,107.941978 550.085693,107.656311 549.296204,108.232536 
	C548.278687,108.975166 547.764893,110.407974 547.034180,111.543518 
	C548.323181,112.320770 549.932190,114.006187 550.835205,113.687988 
	C552.771179,113.005829 554.342651,111.289192 556.063416,109.996178 
	C555.214905,109.240372 554.366333,108.484566 552.643188,107.844536 
z"/>
<path fill="#F2F2F2" opacity="1.000000" stroke="none" 
	d="
M606.464478,104.369598 
	C608.318787,94.714142 614.501770,90.473640 622.362427,93.122414 
	C627.667114,94.909912 630.218689,99.917343 629.568481,107.749176 
	C624.190613,107.749176 618.765381,107.749176 613.255493,107.749176 
	C614.673096,114.347275 617.375610,115.259186 622.399109,111.762581 
	C624.006897,110.643478 626.511902,110.813560 629.207520,110.273346 
	C628.122803,115.628342 625.397339,118.148399 621.098755,118.916031 
	C615.543701,119.908051 610.779419,118.163223 608.651733,113.777443 
	C607.328369,111.049515 607.105286,107.787804 606.464478,104.369598 
M613.307251,102.830696 
	C616.505615,102.830696 619.703979,102.830696 622.902344,102.830696 
	C623.144104,102.444153 623.385925,102.057610 623.627686,101.671059 
	C622.066833,100.422562 620.315979,97.985916 618.988770,98.198196 
	C616.887878,98.534241 615.070740,100.644073 613.307251,102.830696 
z"/>
<path fill="#F2F2F3" opacity="1.000000" stroke="none" 
	d="
M712.631287,106.753159 
	C713.021851,96.073952 719.026855,90.664986 727.558716,92.904602 
	C733.563477,94.480873 736.382385,99.582336 735.526245,107.807961 
	C730.172424,107.807961 724.763000,107.807961 719.264099,107.807961 
	C720.835022,114.420067 723.442078,115.271935 728.469543,111.759872 
	C730.074097,110.638954 732.586853,110.817940 735.011414,110.337242 
	C733.243469,117.181221 730.250305,119.280746 723.619507,119.020241 
	C717.473267,118.778770 713.794800,114.805351 712.631287,106.753159 
M722.103333,98.181450 
	C721.005066,99.588531 719.906860,100.995613 718.524902,102.766159 
	C722.631592,102.766159 725.809937,102.766159 729.153320,102.766159 
	C728.689880,98.565865 726.283630,97.598557 722.103333,98.181450 
z"/>
<path fill="#EFEFF0" opacity="1.000000" stroke="none" 
	d="
M654.738037,114.643784 
	C655.249084,120.787521 651.071716,117.944824 648.071716,119.280006 
	C648.071716,113.493195 648.312378,108.543213 647.939453,103.639893 
	C647.811218,101.953186 646.151367,100.382965 645.191162,98.759537 
	C643.440613,100.141388 640.505554,101.284813 640.170044,102.951500 
	C639.296204,107.292740 639.570190,111.863808 639.365356,116.342247 
	C639.335876,116.986000 639.190247,117.624443 639.066040,118.490921 
	C637.175415,118.490921 635.405640,118.490921 633.298401,118.490921 
	C633.298401,110.176460 633.298401,101.775482 633.298401,93.992142 
	C637.630615,93.420395 641.774658,92.645348 645.951050,92.381073 
	C650.973206,92.063271 654.492371,95.688934 654.701477,101.203369 
	C654.865356,105.525314 654.736816,109.858353 654.738037,114.643784 
z"/>
<path fill="#EBECEC" opacity="1.000000" stroke="none" 
	d="
M472.083618,110.482933 
	C472.066864,104.578926 472.066864,99.118179 472.066864,93.364357 
	C474.317200,93.364357 476.223480,93.364357 478.749756,93.364357 
	C478.749756,98.123955 478.762360,102.897079 478.744873,107.670105 
	C478.735168,110.322090 478.953400,112.934128 482.418915,113.003571 
	C485.797089,113.071259 487.069214,110.742638 487.146851,107.781052 
	C487.272003,103.006287 487.180450,98.225845 487.180450,93.260612 
	C489.587036,93.260612 491.376831,93.260612 493.554016,93.260612 
	C493.554016,101.573105 493.554016,109.925110 493.554016,119.102112 
	C488.875000,116.794563 484.467682,118.936768 479.983398,118.942291 
	C474.977783,118.948463 472.765198,115.537209 472.083618,110.482933 
z"/>
<path fill="#F0F1F1" opacity="1.000000" stroke="none" 
	d="
M520.737915,108.998718 
	C520.737854,112.288292 520.737854,115.099518 520.737854,118.322159 
	C518.605042,118.322159 516.715515,118.322159 514.074524,118.322159 
	C514.074524,113.639137 514.091370,108.721748 514.067200,103.804558 
	C514.055603,101.454033 514.160645,98.384644 510.845703,98.973137 
	C508.990051,99.302559 506.383148,101.540039 506.073761,103.268433 
	C505.207458,108.108170 505.360107,113.130287 505.094299,118.404472 
	C503.183350,118.404472 501.319275,118.404472 499.205750,118.404472 
	C499.205750,110.081619 499.205750,101.828667 499.205750,92.992821 
	C503.646362,93.765831 507.896973,93.351250 512.269531,92.510498 
	C516.636536,91.670815 520.207092,95.661873 520.659729,100.546471 
	C520.904236,103.184196 520.725647,105.861130 520.737915,108.998718 
z"/>
<path fill="#F3F3F3" opacity="1.000000" stroke="none" 
	d="
M661.611084,114.898712 
	C661.402954,109.403931 661.402954,104.275223 661.402954,99.058083 
	C659.458069,98.809677 658.186340,98.647255 656.527466,98.435379 
	C656.446289,96.809586 656.368347,95.249084 656.275635,93.392525 
	C657.991699,93.191704 659.380005,93.029236 660.939209,92.846771 
	C660.939209,90.787384 660.939209,88.983253 660.939209,86.873055 
	C662.911133,86.350540 664.761230,85.860321 667.078430,85.246315 
	C667.263672,87.964035 667.426086,90.347504 667.600281,92.903946 
	C669.571960,93.023445 671.359009,93.131752 673.424805,93.256958 
	C673.424805,95.012978 673.424805,96.578484 673.424805,98.404060 
	C671.564880,98.601471 669.794983,98.789322 668.049072,98.974632 
	C665.624512,109.984688 666.802246,113.057037 673.666870,112.811737 
	C673.666870,114.527290 673.666870,116.242615 673.666870,118.220848 
	C669.282532,119.131096 664.888550,120.116058 661.611084,114.898712 
z"/>
<path fill="#F3F3F3" opacity="1.000000" stroke="none" 
	d="
M540.208130,113.118935 
	C540.009216,114.721100 539.848267,116.356781 539.691162,117.953255 
	C530.664124,120.590416 526.984619,117.939911 526.978271,108.896027 
	C526.976074,105.745636 526.977966,102.595245 526.977966,99.019691 
	C525.493347,98.830467 524.112915,98.654526 522.350220,98.429855 
	C522.247864,96.849022 522.146606,95.285614 522.028320,93.459152 
	C523.719421,93.234756 525.134155,93.047035 526.847107,92.819748 
	C526.933044,90.895798 527.019409,88.961861 527.117554,86.765587 
	C529.069397,86.290497 530.917053,85.840775 533.157471,85.295448 
	C533.288940,87.965279 533.400818,90.237915 533.527161,92.803123 
	C535.333191,92.951355 537.105286,93.096802 539.301880,93.277092 
	C539.301880,94.903496 539.301880,96.570915 539.301880,98.526405 
	C537.427185,98.662659 535.658630,98.791199 533.370117,98.957527 
	C533.370117,101.728729 533.609009,104.357948 533.318481,106.927299 
	C532.780273,111.686752 534.447998,113.874275 539.853271,113.064644 
	C540.315430,113.226250 540.246094,113.152451 540.208130,113.118935 
z"/>
<path fill="#FAFAFA" opacity="1.000000" stroke="none" 
	d="
M460.992249,104.025032 
	C460.992249,100.238548 460.992249,96.947388 460.992249,93.311478 
	C463.019806,93.222038 464.764221,93.145081 467.342926,93.031319 
	C467.342926,99.256500 467.342896,105.300980 467.342987,111.345459 
	C467.343048,114.163376 467.357300,116.981384 467.341003,119.799202 
	C467.293854,127.951729 463.669983,130.470642 455.279144,127.975403 
	C455.208710,126.599892 455.134308,125.146622 455.039490,123.294479 
	C460.476227,123.943649 461.462738,120.993271 461.064117,116.448769 
	C460.717834,112.500900 460.992188,108.498604 460.992249,104.025032 
z"/>
<path fill="#E6E6E6" opacity="1.000000" stroke="none" 
	d="
M464.941559,90.045815 
	C463.358582,90.046410 462.210693,90.046410 460.827454,90.046410 
	C460.827454,87.833145 460.827454,85.891296 460.827454,83.591675 
	C462.928223,83.591675 464.983856,83.591675 467.469818,83.591675 
	C466.819794,85.798920 470.186157,88.973267 464.941559,90.045815 
z"/>
<path fill="#A65956" opacity="1.000000" stroke="none" 
	d="
M339.330078,196.778137 
	C339.028625,187.413651 339.008972,177.733719 339.010559,167.599609 
	C339.225159,176.917862 339.418518,186.690277 339.330078,196.778137 
z"/>
<path fill="#CD0B32" opacity="1.000000" stroke="none" 
	d="
M183.005371,288.227386 
	C181.778229,290.091248 181.778229,290.091248 180.108429,286.879822 
	C179.320892,285.336121 178.734985,284.335480 177.945358,283.536072 
	C163.087784,268.493652 148.228104,253.453171 133.322067,238.458801 
	C122.533829,227.606613 111.677422,216.822189 100.811539,205.642517 
	C101.643654,204.118256 102.394928,202.839767 103.405258,201.817245 
	C127.963173,176.963470 152.559113,152.147247 177.097900,127.274643 
	C178.300232,126.055954 179.046371,124.387199 180.004929,122.928024 
	C180.966614,122.344696 181.928284,121.761375 182.648773,121.613556 
	C182.426498,122.328903 182.331207,122.722435 182.480545,122.872467 
	C206.188095,146.691833 229.899780,170.507156 253.653046,194.280899 
	C257.006287,197.637009 260.565979,200.786850 264.030090,204.032166 
	C264.030090,204.032166 263.976990,204.018982 263.843872,204.307419 
	C262.627991,206.023178 261.691559,207.595673 260.440857,208.856369 
	C234.817169,234.684753 209.154266,260.474182 183.535355,286.307281 
	C183.127731,286.718292 183.171982,287.577393 183.005371,288.227386 
M252.324432,211.839417 
	C254.168579,210.290100 256.012726,208.740784 258.790649,206.406982 
	C240.719604,206.406982 224.527878,206.406982 208.180359,206.406982 
	C208.180359,212.960678 208.172760,219.113678 208.195587,225.266556 
	C208.197311,225.731674 208.415421,226.195999 208.664490,227.180771 
	C212.229813,227.180771 215.907196,226.754852 219.452881,227.257629 
	C231.966690,229.032043 242.259628,225.894592 249.381882,214.829102 
	C249.998688,213.870834 251.003204,213.162140 252.324432,211.839417 
M155.976028,202.254456 
	C155.976028,195.837540 155.976028,189.420624 155.976028,182.828506 
	C146.861084,182.828506 138.395920,182.785294 129.932205,182.876602 
	C128.707962,182.889801 127.171051,183.195450 126.320839,183.964767 
	C119.609886,190.037140 113.030548,196.254959 106.410721,202.428024 
	C106.787529,202.916458 107.164330,203.404877 107.541138,203.893311 
	C123.420036,203.893311 139.298935,203.896301 155.177765,203.864899 
	C155.415894,203.864426 155.653168,203.437347 155.976028,202.254456 
M173.536026,136.036270 
	C171.580978,138.072220 169.528091,140.024994 167.703445,142.171783 
	C166.366150,143.745163 164.384338,145.536560 164.316177,147.293884 
	C163.970825,156.195709 164.157181,165.118164 164.157181,174.200623 
	C170.057983,174.200623 175.418091,174.200623 180.773636,174.200623 
	C180.773636,159.129898 180.773636,144.427399 180.773636,128.343536 
	C178.018250,131.285065 176.027298,133.410507 173.536026,136.036270 
M198.110123,235.451874 
	C193.196213,235.451874 188.282288,235.451874 183.431641,235.451874 
	C183.431641,250.904160 183.431641,265.572479 183.431641,280.478607 
	C194.019318,272.148193 203.589127,263.767975 200.287903,248.460114 
	C199.603531,245.286697 200.275558,241.835968 200.134155,238.521072 
	C200.091232,237.514877 199.416351,236.535614 198.110123,235.451874 
M181.012375,235.500000 
	C181.012375,225.735321 181.012375,215.970657 181.012375,206.333664 
	C177.836578,206.333664 175.277008,206.333664 172.410019,206.333664 
	C172.410019,225.973846 172.831299,245.283203 172.198624,264.557983 
	C171.952301,272.062897 174.871017,276.601013 181.012527,280.769501 
	C181.012527,265.684570 181.012527,251.092285 181.012375,235.500000 
M189.343964,204.009766 
	C192.821579,204.236588 191.830185,201.619949 191.834869,199.870560 
	C191.884354,181.373199 191.406647,162.858673 192.090149,144.386490 
	C192.365341,136.948929 188.484329,133.424683 183.356766,129.160095 
	C183.356766,154.387329 183.356766,178.946960 183.356766,204.012375 
	C185.188889,204.012375 186.804550,204.012375 189.343964,204.009766 
M164.598175,249.489655 
	C164.598175,235.075653 164.598175,220.661667 164.598175,206.239960 
	C161.367004,206.239960 158.772095,206.239960 155.789032,206.239960 
	C155.789032,220.423599 156.294098,234.380478 155.585297,248.275467 
	C155.205933,255.712341 158.736664,259.870209 164.597946,264.506989 
	C164.597946,259.303375 164.597946,254.892975 164.598175,249.489655 
M205.046051,150.515930 
	C203.669968,148.983231 202.293900,147.450546 200.265945,145.191772 
	C200.265945,165.622757 200.265945,184.677322 200.265945,203.691467 
	C203.120834,203.691467 205.682678,203.691467 208.581390,203.691467 
	C208.581390,187.567261 208.670532,171.759125 208.448196,155.955353 
	C208.425095,154.313293 206.552841,152.697266 205.046051,150.515930 
M183.159988,222.343781 
	C183.231934,223.796967 183.303879,225.250168 183.385452,226.897949 
	C189.039734,226.897949 194.412903,226.897949 199.948486,226.897949 
	C199.948486,219.892960 199.948486,213.172119 199.948486,206.276978 
	C194.336517,206.276978 188.956451,206.276978 183.159943,206.276978 
	C183.159943,211.482254 183.159943,216.428116 183.159988,222.343781 
M171.544525,182.819122 
	C169.254150,182.819122 166.963776,182.819122 164.419861,182.819122 
	C164.419861,190.031342 164.419861,196.765381 164.419861,203.685242 
	C169.996429,203.685242 175.370255,203.685242 180.711044,203.685242 
	C180.711044,196.623535 180.711044,189.873489 180.711044,182.818832 
	C177.795670,182.818832 175.155869,182.818832 171.544525,182.819122 
M139.129776,229.445084 
	C139.128876,239.938782 141.083832,243.799408 147.542984,246.342422 
	C147.542984,233.017212 147.542984,219.623306 147.542984,206.293808 
	C144.629303,206.293808 142.048187,206.293808 139.129898,206.293808 
	C139.129898,213.885590 139.129898,221.173080 139.129776,229.445084 
M219.711655,204.018463 
	C221.470871,204.018463 223.230087,204.018463 225.214005,204.018463 
	C225.214005,194.879593 224.637512,186.352737 225.387787,177.944244 
	C226.043716,170.593155 221.952759,166.959274 216.413177,162.590332 
	C216.413177,176.199020 216.371719,188.960297 216.515167,201.719482 
	C216.523865,202.493225 218.002075,203.250443 219.711655,204.018463 
M213.706924,235.389404 
	C211.940216,235.389404 210.173523,235.389404 208.361359,235.389404 
	C208.361359,242.487213 208.361359,248.867142 208.361359,253.310547 
	C214.050201,247.891144 220.597534,241.653900 227.173767,235.389130 
	C223.204102,235.389130 218.926804,235.389130 213.706924,235.389404 
M152.277100,174.860001 
	C153.515381,174.218170 155.795364,173.625626 155.828430,172.926773 
	C156.112991,166.912354 155.991943,160.878754 155.991943,155.840912 
	C149.503006,161.810059 142.864304,167.916977 135.316498,174.860184 
	C141.501343,174.860184 146.413040,174.860184 152.277100,174.860001 
M233.141129,202.151520 
	C235.867294,202.961380 238.593460,203.771255 241.754822,204.710403 
	C241.843658,194.527130 244.100967,185.095520 233.129303,179.898804 
	C233.129303,187.071808 233.129303,194.140915 233.141129,202.151520 
M122.430611,220.625687 
	C124.903770,223.841431 127.376930,227.057175 129.850082,230.272919 
	C130.163925,230.029816 130.477753,229.786713 130.791595,229.543610 
	C130.791595,221.833145 130.791595,214.122681 130.791595,206.220490 
	C128.011627,206.220490 125.450981,206.220490 122.419632,206.220490 
	C122.419632,210.883881 122.419632,215.330200 122.430611,220.625687 
M113.897667,213.363708 
	C114.165108,210.993011 114.432549,208.622299 114.684006,206.393280 
	C111.563316,206.393280 109.277267,206.393280 106.531975,206.393280 
	C109.084030,208.958878 111.167534,211.053436 113.897667,213.363708 
M252.352097,204.025314 
	C253.919724,204.025314 255.487366,204.025314 257.073151,204.025314 
	C254.610657,201.587158 252.390198,199.388657 249.184662,196.214828 
	C250.144867,199.429825 250.829224,201.721222 252.352097,204.025314 
z"/>
<path fill="#FCF4F2" opacity="1.000000" stroke="none" 
	d="
M144.501251,92.318680 
	C144.217010,83.267616 150.540955,77.788582 159.599976,78.375771 
	C161.832108,78.520454 164.142731,77.468559 166.414627,76.955078 
	C166.568130,76.920372 166.689072,76.739677 166.842422,76.706367 
	C177.291916,74.437035 187.715302,73.872574 198.116119,77.048622 
	C200.179367,77.678658 202.338715,77.987534 204.439423,78.502861 
	C208.068832,79.393211 212.183289,79.531792 215.206161,81.412903 
	C221.413254,85.275558 221.603928,92.236679 216.155457,98.246368 
	C214.960251,97.199631 213.758942,96.147545 213.644501,96.047318 
	C213.476776,92.266716 214.351395,88.760689 213.023270,87.391838 
	C210.939697,85.244362 207.369583,84.539169 204.298065,83.164558 
	C203.311356,87.263496 202.668350,89.934639 202.025345,92.605782 
	C201.387878,92.734230 200.750412,92.862671 200.112930,92.991119 
	C199.364761,90.709412 198.296509,88.476929 197.936432,86.135529 
	C197.232681,81.559341 191.619019,79.345436 185.130066,81.513176 
	C185.130066,83.718430 185.130066,86.017578 185.130066,88.666786 
	C183.182266,88.666786 181.500778,88.666786 179.594391,88.666786 
	C179.521805,87.702744 179.320328,86.876556 179.424362,86.090813 
	C179.893005,82.551292 178.863998,80.300407 174.859634,80.215614 
	C170.655731,80.126610 166.931076,83.013222 166.417786,86.468048 
	C166.096039,88.633583 165.155350,90.707161 164.492371,92.821999 
	C163.825928,92.802399 163.159470,92.782799 162.493027,92.763199 
	C161.770813,90.087006 161.048584,87.410812 160.197311,84.256416 
	C156.682892,83.514084 153.026154,84.142487 151.003235,87.605721 
	C150.012741,89.301414 150.831680,92.054008 152.030167,94.621971 
	C150.861145,95.909065 149.692123,97.196159 147.896729,99.172897 
	C146.480240,96.387085 145.541245,94.540367 144.501251,92.318680 
z"/>
<path fill="#FCF5F3" opacity="1.000000" stroke="none" 
	d="
M183.354767,288.130554 
	C183.171982,287.577393 183.127731,286.718292 183.535355,286.307281 
	C209.154266,260.474182 234.817169,234.684753 260.440857,208.856369 
	C261.691559,207.595673 262.627991,206.023178 263.847046,204.280243 
	C264.099274,205.155853 264.771790,206.752319 264.245117,207.475632 
	C258.969635,214.721024 253.836792,222.113770 248.016586,228.910873 
	C230.134613,249.794266 210.649628,269.038422 188.359131,285.278442 
	C186.908386,286.335388 185.260391,287.121582 183.354767,288.130554 
z"/>
<path fill="#FCF5F3" opacity="1.000000" stroke="none" 
	d="
M264.353394,203.763763 
	C260.565979,200.786850 257.006287,197.637009 253.653046,194.280899 
	C229.899780,170.507156 206.188095,146.691833 182.480545,122.872467 
	C182.331207,122.722435 182.426498,122.328903 182.706268,121.910095 
	C189.987823,126.817612 197.353073,131.416245 203.883713,136.992386 
	C225.735458,155.650391 245.669556,176.166794 262.370880,199.661682 
	C263.232361,200.873550 263.912292,202.214493 264.353394,203.763763 
z"/>
<path fill="#FDF6F4" opacity="1.000000" stroke="none" 
	d="
M179.642593,122.939346 
	C179.046371,124.387199 178.300232,126.055954 177.097900,127.274643 
	C152.559113,152.147247 127.963173,176.963470 103.405258,201.817245 
	C102.394928,202.839767 101.643654,204.118256 100.604477,205.485809 
	C100.032097,205.142624 99.626923,204.591141 99.221741,204.039658 
	C109.190773,191.624924 118.331612,178.411240 129.340469,166.999664 
	C142.812958,153.034363 157.813019,140.537308 172.253937,127.517830 
	C174.303024,125.670441 176.923981,124.457336 179.642593,122.939346 
z"/>
<path fill="#FDF7F5" opacity="1.000000" stroke="none" 
	d="
M99.045013,204.372711 
	C99.626923,204.591141 100.032097,205.142624 100.644333,205.850830 
	C111.677422,216.822189 122.533829,227.606613 133.322067,238.458801 
	C148.228104,253.453171 163.087784,268.493652 177.945358,283.536072 
	C178.734985,284.335480 179.320892,285.336121 179.989014,286.591431 
	C178.640839,286.425476 177.099335,286.184692 175.999847,285.356842 
	C147.068130,263.573181 121.777534,238.204086 100.793213,208.628860 
	C99.961205,207.456238 99.501472,206.019455 99.045013,204.372711 
z"/>
<path fill="#FCF2EF" opacity="1.000000" stroke="none" 
	d="
M195.264145,113.416023 
	C182.795349,110.459984 171.093124,111.607674 159.460510,116.844917 
	C158.469788,115.374176 157.502625,113.938423 156.233780,112.054840 
	C173.783890,104.293221 190.686295,104.330612 208.047272,112.027168 
	C206.965103,113.719498 206.108185,115.059555 205.119324,116.605957 
	C201.881866,115.559860 198.768921,114.553993 195.264145,113.416023 
z"/>
<path fill="#FBEFEC" opacity="1.000000" stroke="none" 
	d="
M162.699707,105.302406 
	C163.526535,101.473343 164.608475,97.900284 165.889694,93.669113 
	C168.859650,96.959969 171.390549,99.764328 174.354324,103.048340 
	C170.187057,103.965935 166.570953,104.762169 162.699707,105.302406 
z"/>
<path fill="#FAEBE7" opacity="1.000000" stroke="none" 
	d="
M176.449341,101.838409 
	C178.315369,98.504417 180.179871,95.513985 182.329941,92.065544 
	C184.489929,95.809464 186.362274,99.054794 188.837936,103.345871 
	C184.112137,102.901939 180.279968,102.541954 176.449341,101.838409 
z"/>
<path fill="#FAEBE6" opacity="1.000000" stroke="none" 
	d="
M193.094040,104.200005 
	C192.113602,103.205887 190.789017,101.599693 191.013412,101.341927 
	C193.183334,98.849289 195.613449,96.583145 198.185654,94.038170 
	C199.503647,97.464447 200.730804,100.654556 201.957962,103.844658 
	C200.634964,104.250198 199.321289,104.941742 197.986511,104.985191 
	C196.490494,105.033890 194.975418,104.496162 193.094040,104.200005 
z"/>
<path fill="#FBEDE9" opacity="1.000000" stroke="none" 
	d="
M149.810760,101.927536 
	C150.735748,100.901245 152.198212,99.508568 152.536484,99.742371 
	C155.158844,101.554924 157.564209,103.681450 160.038239,105.712044 
	C156.645554,109.264305 153.568176,108.223083 149.810760,101.927536 
z"/>
<path fill="#FCF2EF" opacity="1.000000" stroke="none" 
	d="
M208.512085,107.811157 
	C206.757660,107.495132 205.358032,107.054504 203.149338,106.359161 
	C207.080795,103.502556 210.134201,101.283943 213.374847,98.929291 
	C216.449127,104.541061 210.748917,105.094543 208.512085,107.811157 
z"/>
<path fill="#F9E9E5" opacity="1.000000" stroke="none" 
	d="
M90.366806,201.539154 
	C92.005051,202.619064 93.680412,203.626541 94.434326,205.104156 
	C94.740753,205.704727 93.275711,207.775803 92.183441,208.342087 
	C91.326492,208.786362 89.338966,208.358093 88.661774,207.597763 
	C86.552345,205.229279 87.161240,203.084091 90.366806,201.539154 
z"/>
<path fill="#FBEFEC" opacity="1.000000" stroke="none" 
	d="
M271.574219,208.184647 
	C271.106201,206.154007 270.775604,204.251709 271.045288,202.438660 
	C271.094452,202.108185 273.891479,201.607452 274.877014,202.157761 
	C275.865631,202.709793 276.930084,205.323227 276.654419,205.569366 
	C275.316406,206.763916 273.539337,207.466675 271.574219,208.184647 
z"/>
<path fill="#FCF4F2" opacity="1.000000" stroke="none" 
	d="
M185.408539,69.478973 
	C183.313904,69.923660 181.366821,70.315552 179.575714,69.947815 
	C179.110687,69.852348 178.509094,66.955055 179.087769,66.109222 
	C179.832840,65.020142 182.613617,63.858669 182.928421,64.198860 
	C184.162918,65.533020 184.772522,67.445389 185.408539,69.478973 
z"/>
<path fill="#FCF2EF" opacity="1.000000" stroke="none" 
	d="
M179.410767,294.773224 
	C181.387726,294.482666 183.301773,294.051208 184.752045,294.683502 
	C185.359772,294.948425 185.494415,297.739685 184.890396,298.874939 
	C184.428909,299.742401 181.550720,300.446777 181.328888,300.126953 
	C180.303482,298.648499 179.831116,296.786469 179.410767,294.773224 
z"/>
<path fill="#050506" opacity="1.000000" stroke="none" 
	d="
M472.962799,213.678986 
	C477.240845,214.070465 481.149139,213.994141 484.785065,214.951828 
	C491.938202,216.835922 495.890198,222.613541 495.942413,230.213562 
	C495.988159,236.873550 492.278595,242.074219 485.242065,244.124863 
	C481.636292,245.175720 477.738403,245.511566 473.957428,245.614182 
	C465.991272,245.830338 458.015167,245.679916 449.682404,245.679916 
	C449.682404,235.053299 449.682404,224.679993 449.682404,213.678619 
	C457.285522,213.678619 464.877716,213.678619 472.962799,213.678986 
z"/>
<path fill="#060606" opacity="1.000000" stroke="none" 
	d="
M462.014008,166.319946 
	C468.649597,166.509674 474.842316,166.260773 480.915924,166.996124 
	C489.186035,167.997406 493.578278,173.654480 493.266052,181.742462 
	C492.969086,189.436752 488.192078,194.608475 479.887054,194.968567 
	C469.942810,195.399750 459.965607,195.070358 449.661407,195.070358 
	C449.661407,185.647079 449.661407,176.277283 449.661407,166.319946 
	C453.640869,166.319946 457.579468,166.319946 462.014008,166.319946 
z"/>
<path fill="#0E0E0E" opacity="1.000000" stroke="none" 
	d="
M444.135986,96.119125 
	C445.241608,99.430069 446.272034,102.374847 447.441010,105.715614 
	C444.432007,105.715614 441.879883,105.715614 438.773132,105.715614 
	C439.911530,102.118263 441.026031,98.596375 442.140503,95.074478 
	C442.780609,95.300644 443.420715,95.526802 444.135986,96.119125 
z"/>
<path fill="#060606" opacity="1.000000" stroke="none" 
	d="
M692.983154,108.564461 
	C692.915466,107.976067 692.896423,107.812164 692.886230,107.647705 
	C692.669922,104.145485 692.307617,100.348480 696.153503,98.636414 
	C697.551025,98.014297 701.108093,98.767609 701.304016,99.515610 
	C702.216003,102.997849 702.691528,106.724899 702.448242,110.304893 
	C702.368530,111.477829 699.264221,113.639900 698.218628,113.295952 
	C696.233582,112.642944 694.735962,110.508072 692.983154,108.564461 
z"/>
<path fill="#080808" opacity="1.000000" stroke="none" 
	d="
M553.080505,107.786652 
	C554.366333,108.484566 555.214905,109.240372 556.063416,109.996170 
	C554.342651,111.289192 552.771179,113.005829 550.835205,113.687988 
	C549.932190,114.006187 548.323181,112.320770 547.034180,111.543518 
	C547.764893,110.407974 548.278687,108.975166 549.296204,108.232536 
	C550.085693,107.656311 551.504272,107.941978 553.080505,107.786652 
z"/>
<path fill="#080808" opacity="1.000000" stroke="none" 
	d="
M613.220398,102.417015 
	C615.070740,100.644073 616.887878,98.534241 618.988770,98.198196 
	C620.315979,97.985916 622.066833,100.422562 623.627686,101.671059 
	C623.385925,102.057610 623.144104,102.444153 622.902344,102.830696 
	C619.703979,102.830696 616.505615,102.830696 613.220398,102.417015 
z"/>
<path fill="#080808" opacity="1.000000" stroke="none" 
	d="
M722.497681,98.076996 
	C726.283630,97.598557 728.689880,98.565865 729.153320,102.766159 
	C725.809937,102.766159 722.631592,102.766159 718.524902,102.766159 
	C719.906860,100.995613 721.005066,99.588531 722.497681,98.076996 
z"/>
<path fill="#FEFCFB" opacity="1.000000" stroke="none" 
	d="
M252.076019,212.088470 
	C251.003204,213.162140 249.998688,213.870834 249.381882,214.829102 
	C242.259628,225.894592 231.966690,229.032043 219.452881,227.257629 
	C215.907196,226.754852 212.229813,227.180771 208.664490,227.180771 
	C208.415421,226.195999 208.197311,225.731674 208.195587,225.266556 
	C208.172760,219.113678 208.180359,212.960678 208.180359,206.406982 
	C224.527878,206.406982 240.719604,206.406982 258.790649,206.406982 
	C256.012726,208.740784 254.168579,210.290100 252.076019,212.088470 
z"/>
<path fill="#FFFFFF" opacity="1.000000" stroke="none" 
	d="
M155.933441,202.731918 
	C155.653168,203.437347 155.415894,203.864426 155.177765,203.864899 
	C139.298935,203.896301 123.420036,203.893311 107.541138,203.893311 
	C107.164330,203.404877 106.787529,202.916458 106.410721,202.428024 
	C113.030548,196.254959 119.609886,190.037140 126.320839,183.964767 
	C127.171051,183.195450 128.707962,182.889801 129.932205,182.876602 
	C138.395920,182.785294 146.861084,182.828506 155.976028,182.828506 
	C155.976028,189.420624 155.976028,195.837540 155.933441,202.731918 
z"/>
<path fill="#FDF9F7" opacity="1.000000" stroke="none" 
	d="
M173.786194,135.786102 
	C176.027298,133.410507 178.018250,131.285065 180.773636,128.343536 
	C180.773636,144.427399 180.773636,159.129898 180.773636,174.200623 
	C175.418091,174.200623 170.057983,174.200623 164.157181,174.200623 
	C164.157181,165.118164 163.970825,156.195709 164.316177,147.293884 
	C164.384338,145.536560 166.366150,143.745163 167.703445,142.171783 
	C169.528091,140.024994 171.580978,138.072220 173.786194,135.786102 
z"/>
<path fill="#FDF9F7" opacity="1.000000" stroke="none" 
	d="
M198.570526,235.497955 
	C199.416351,236.535614 200.091232,237.514877 200.134155,238.521072 
	C200.275558,241.835968 199.603531,245.286697 200.287903,248.460114 
	C203.589127,263.767975 194.019318,272.148193 183.431641,280.478607 
	C183.431641,265.572479 183.431641,250.904160 183.431641,235.451874 
	C188.282288,235.451874 193.196213,235.451874 198.570526,235.497955 
z"/>
<path fill="#FCF4F2" opacity="1.000000" stroke="none" 
	d="
M181.012451,236.000000 
	C181.012527,251.092285 181.012527,265.684570 181.012527,280.769501 
	C174.871017,276.601013 171.952301,272.062897 172.198624,264.557983 
	C172.831299,245.283203 172.410019,225.973846 172.410019,206.333664 
	C175.277008,206.333664 177.836578,206.333664 181.012375,206.333664 
	C181.012375,215.970657 181.012375,225.735321 181.012451,236.000000 
z"/>
<path fill="#FCF4F1" opacity="1.000000" stroke="none" 
	d="
M188.882095,204.011078 
	C186.804550,204.012375 185.188889,204.012375 183.356766,204.012375 
	C183.356766,178.946960 183.356766,154.387329 183.356766,129.160095 
	C188.484329,133.424683 192.365341,136.948929 192.090149,144.386490 
	C191.406647,162.858673 191.884354,181.373199 191.834869,199.870560 
	C191.830185,201.619949 192.821579,204.236588 188.882095,204.011078 
z"/>
<path fill="#FCF2F0" opacity="1.000000" stroke="none" 
	d="
M164.598053,249.986115 
	C164.597946,254.892975 164.597946,259.303375 164.597946,264.506989 
	C158.736664,259.870209 155.205933,255.712341 155.585297,248.275467 
	C156.294098,234.380478 155.789032,220.423599 155.789032,206.239960 
	C158.772095,206.239960 161.367004,206.239960 164.598175,206.239960 
	C164.598175,220.661667 164.598175,235.075653 164.598053,249.986115 
z"/>
<path fill="#FCF4F2" opacity="1.000000" stroke="none" 
	d="
M205.292297,150.792542 
	C206.552841,152.697266 208.425095,154.313293 208.448196,155.955353 
	C208.670532,171.759125 208.581390,187.567261 208.581390,203.691467 
	C205.682678,203.691467 203.120834,203.691467 200.265945,203.691467 
	C200.265945,184.677322 200.265945,165.622757 200.265945,145.191772 
	C202.293900,147.450546 203.669968,148.983231 205.292297,150.792542 
z"/>
<path fill="#FEFCFB" opacity="1.000000" stroke="none" 
	d="
M183.159973,221.858887 
	C183.159943,216.428116 183.159943,211.482254 183.159943,206.276978 
	C188.956451,206.276978 194.336517,206.276978 199.948486,206.276978 
	C199.948486,213.172119 199.948486,219.892960 199.948486,226.897949 
	C194.412903,226.897949 189.039734,226.897949 183.385452,226.897949 
	C183.303879,225.250168 183.231934,223.796967 183.159973,221.858887 
z"/>
<path fill="#FEFCFB" opacity="1.000000" stroke="none" 
	d="
M172.030304,182.818970 
	C175.155869,182.818832 177.795670,182.818832 180.711044,182.818832 
	C180.711044,189.873489 180.711044,196.623535 180.711044,203.685242 
	C175.370255,203.685242 169.996429,203.685242 164.419861,203.685242 
	C164.419861,196.765381 164.419861,190.031342 164.419861,182.819122 
	C166.963776,182.819122 169.254150,182.819122 172.030304,182.818970 
z"/>
<path fill="#FCF2EF" opacity="1.000000" stroke="none" 
	d="
M139.129837,228.952820 
	C139.129898,221.173080 139.129898,213.885590 139.129898,206.293808 
	C142.048187,206.293808 144.629303,206.293808 147.542984,206.293808 
	C147.542984,219.623306 147.542984,233.017212 147.542984,246.342422 
	C141.083832,243.799408 139.128876,239.938782 139.129837,228.952820 
z"/>
<path fill="#FCF2EF" opacity="1.000000" stroke="none" 
	d="
M219.254089,204.016907 
	C218.002075,203.250443 216.523865,202.493225 216.515167,201.719482 
	C216.371719,188.960297 216.413177,176.199020 216.413177,162.590332 
	C221.952759,166.959274 226.043716,170.593155 225.387787,177.944244 
	C224.637512,186.352737 225.214005,194.879593 225.214005,204.018463 
	C223.230087,204.018463 221.470871,204.018463 219.254089,204.016907 
z"/>
<path fill="#FBEFEC" opacity="1.000000" stroke="none" 
	d="
M214.178207,235.389267 
	C218.926804,235.389130 223.204102,235.389130 227.173767,235.389130 
	C220.597534,241.653900 214.050201,247.891144 208.361359,253.310547 
	C208.361359,248.867142 208.361359,242.487213 208.361359,235.389404 
	C210.173523,235.389404 211.940216,235.389404 214.178207,235.389267 
z"/>
<path fill="#FCF5F3" opacity="1.000000" stroke="none" 
	d="
M151.800919,174.860092 
	C146.413040,174.860184 141.501343,174.860184 135.316498,174.860184 
	C142.864304,167.916977 149.503006,161.810059 155.991943,155.840912 
	C155.991943,160.878754 156.112991,166.912354 155.828430,172.926773 
	C155.795364,173.625626 153.515381,174.218170 151.800919,174.860092 
z"/>
<path fill="#FBF1EE" opacity="1.000000" stroke="none" 
	d="
M233.135223,201.680771 
	C233.129303,194.140915 233.129303,187.071808 233.129303,179.898804 
	C244.100967,185.095520 241.843658,194.527130 241.754822,204.710403 
	C238.593460,203.771255 235.867294,202.961380 233.135223,201.680771 
z"/>
<path fill="#FDF6F4" opacity="1.000000" stroke="none" 
	d="
M122.425125,220.201111 
	C122.419632,215.330200 122.419632,210.883881 122.419632,206.220490 
	C125.450981,206.220490 128.011627,206.220490 130.791595,206.220490 
	C130.791595,214.122681 130.791595,221.833145 130.791595,229.543610 
	C130.477753,229.786713 130.163925,230.029816 129.850082,230.272919 
	C127.376930,227.057175 124.903770,223.841431 122.425125,220.201111 
z"/>
<path fill="#F9E9E5" opacity="1.000000" stroke="none" 
	d="
M113.574356,213.255844 
	C111.167534,211.053436 109.084030,208.958878 106.531975,206.393280 
	C109.277267,206.393280 111.563316,206.393280 114.684006,206.393280 
	C114.432549,208.622299 114.165108,210.993011 113.574356,213.255844 
z"/>
<path fill="#FBEDE9" opacity="1.000000" stroke="none" 
	d="
M251.932831,204.018982 
	C250.829224,201.721222 250.144867,199.429825 249.184662,196.214828 
	C252.390198,199.388657 254.610657,201.587158 257.073151,204.025314 
	C255.487366,204.025314 253.919724,204.025314 251.932831,204.018982 
z"/>
</svg>