<svg version="1.1" id="Layer_1" xmlns="http://www.w3.org/2000/svg" xmlns:xlink="http://www.w3.org/1999/xlink" x="0px" y="0px"
	 width="100%" viewBox="0 0 734 434" enable-background="new 0 0 734 434" xml:space="preserve">
<path fill="#FEFDFD" opacity="1.000000" stroke="none" 
	d="
M735.000000,88.000000 
	C735.000000,203.615250 735.000000,319.230499 735.000000,435.000000 
	C526.977356,435.000000 318.954742,435.000000 110.642189,434.716125 
	C148.270691,405.632019 186.216873,376.868103 224.027023,347.926422 
	C225.956314,346.449646 227.776123,343.482269 227.857910,341.146271 
	C228.742966,315.863495 229.272522,290.568298 229.887405,265.276154 
	C229.934845,263.325012 229.893646,261.371704 229.893646,259.305237 
	C200.221619,259.305237 171.028778,259.305237 141.659073,259.305237 
	C141.659073,261.817169 141.653824,263.979187 141.659897,266.141235 
	C141.711426,284.466187 141.887604,302.791901 141.768555,321.115723 
	C141.704758,330.938385 141.379578,340.807037 137.184494,349.998291 
	C132.495239,360.272247 123.614113,364.480164 110.108559,362.921539 
	C99.026306,361.642578 92.631035,355.899475 90.950676,344.544983 
	C89.883217,337.331970 89.566010,329.955688 89.534973,322.649963 
	C89.326874,273.671967 89.190948,224.693146 89.230484,175.714767 
	C89.250511,150.900665 89.151711,126.066223 90.111931,101.279922 
	C90.801285,83.485649 99.835297,76.027367 117.507164,76.080086 
	C125.380920,76.103569 131.284592,79.434578 133.960892,86.692474 
	C136.295792,93.024513 138.468414,99.759361 138.816528,106.415413 
	C139.781281,124.861954 139.759888,143.360184 140.117676,161.838181 
	C140.155197,163.775497 140.122726,165.714157 140.122726,167.716309 
	C169.820496,167.716309 198.893021,167.716309 227.488358,167.716309 
	C227.488358,145.156555 228.213654,122.842354 227.191895,100.608444 
	C226.656006,88.947395 224.093552,77.108887 220.650604,65.902184 
	C209.816544,30.637453 184.921631,10.946266 149.231842,4.016924 
	C144.472076,3.092789 139.743195,2.009555 135.000000,1.000000 
	C335.000000,1.000000 535.000000,1.000000 735.000000,1.000000 
	C735.000000,4.040890 735.000000,7.038600 734.531494,10.527745 
	C658.306702,11.019179 582.550537,11.019179 506.884155,11.019179 
	C506.884155,37.067863 506.884155,62.466301 506.884155,88.369843 
	C529.983215,88.369843 552.705505,88.369843 575.755066,88.369843 
	C575.755066,90.521439 575.755127,92.165413 575.755066,93.809395 
	C575.753723,184.303238 575.779602,274.797119 575.661743,365.290802 
	C575.656433,369.341248 576.744446,371.930847 580.007324,374.468384 
	C600.518494,390.419434 621.183777,406.206451 641.044189,422.942352 
	C648.342590,429.092590 655.584351,428.471405 664.082764,427.930481 
	C664.082764,314.520538 664.082764,201.467316 664.082764,88.000000 
	C688.055298,88.000000 711.527649,88.000000 735.000000,88.000000 
M521.098206,359.919617 
	C521.098206,359.919617 521.250061,359.706177 521.055603,359.224335 
	C520.746338,359.094177 520.437012,358.964050 520.099121,359.001465 
	C520.099121,359.001465 520.159607,358.842407 519.981812,358.251801 
	C519.312012,357.858398 518.642212,357.464966 517.715515,356.834442 
	C517.715515,356.834442 517.382385,356.728333 517.158203,356.084351 
	C515.536316,354.948151 513.914368,353.811981 511.995880,352.745331 
	C511.995880,352.745331 512.284241,352.645721 512.092651,352.017487 
	C510.481689,350.862946 508.870697,349.708374 507.015015,348.214722 
	C506.815063,348.009521 506.576630,347.870148 506.056488,347.192749 
	C505.031036,346.478851 504.005585,345.764954 502.755493,344.794159 
	C502.755493,344.794159 502.436829,344.671967 502.198364,344.189453 
	C501.885284,344.036133 501.572205,343.882812 501.091370,343.696381 
	C501.091370,343.696381 501.262299,343.690186 501.067627,343.060425 
	C496.502777,339.588562 491.937927,336.116699 487.082397,332.896667 
	C487.082397,332.896667 487.345795,332.616394 487.219543,332.084137 
	C486.776581,331.822266 486.333588,331.560425 485.614044,331.006897 
	C485.614044,331.006897 485.248444,330.839905 485.057312,330.189117 
	C480.812408,327.011566 476.567474,323.834045 472.041290,320.766113 
	C472.041290,320.766113 472.303558,320.616608 472.125519,319.987183 
	C469.401093,317.617676 466.784607,315.108276 463.931030,312.906189 
	C456.803131,307.405609 449.567566,302.044617 442.288788,296.774323 
	C442.288788,296.774323 442.307129,296.605011 442.128357,296.119385 
	C441.837433,295.946503 441.546509,295.773590 441.011780,295.245605 
	C440.807709,295.031586 440.562439,294.887817 440.043060,294.185547 
	C437.712067,292.435913 435.381073,290.686249 433.002930,289.000641 
	C433.002930,289.000641 433.062469,288.947449 432.926147,288.293396 
	C430.596558,286.588654 428.266968,284.883942 425.627899,282.936554 
	C425.627899,282.936554 425.249115,282.830658 425.053711,282.180939 
	C418.443085,276.988800 411.832458,271.796661 405.007385,266.241150 
	C404.823273,266.015259 404.591034,265.862579 404.100739,265.139526 
	C399.940826,261.665405 395.851013,258.100037 391.556732,254.800827 
	C390.778168,254.202667 388.804382,254.195541 387.996460,254.773697 
	C385.090271,256.853394 382.447113,259.300568 379.853394,261.781555 
	C379.853394,261.781555 379.663574,261.655365 379.007050,261.752258 
	C377.866455,262.753143 376.725861,263.754059 375.270691,264.873871 
	C375.270691,264.873871 375.047760,265.125671 374.355957,265.163696 
	C369.131256,269.372192 363.906586,273.580719 358.336578,277.944061 
	C358.336578,277.944061 358.084503,278.226410 357.397552,278.200134 
	C355.516998,279.553925 353.589600,280.847595 351.763702,282.271454 
	C341.595581,290.200775 331.451996,298.161591 320.862427,306.461975 
	C320.608093,306.735474 320.353790,307.008972 319.442444,307.233002 
	C318.207458,308.379395 316.972473,309.525757 316.016724,310.846039 
	C316.016724,310.846039 315.723450,310.697845 315.033600,310.759857 
	C308.270386,316.076233 301.507172,321.392578 294.799347,326.956421 
	C294.799347,326.956421 294.760986,326.711823 294.082520,326.767731 
	C292.387360,328.177673 290.692200,329.587646 289.000000,331.000000 
	C289.000000,331.000000 288.997742,330.996857 288.306580,331.076691 
	C283.462830,334.967773 278.619049,338.858826 273.827972,342.994385 
	C273.827972,342.994385 273.797882,342.748322 273.099121,342.818756 
	C264.596497,349.447083 256.093903,356.075378 247.265808,362.821442 
	C247.265808,362.821442 247.028641,363.073486 246.332138,363.092651 
	C241.457489,366.995972 236.582840,370.899292 231.344116,374.941864 
	C231.344116,374.941864 231.072571,375.221497 230.384888,375.199951 
	C220.526352,382.688477 210.624527,390.120972 200.829742,397.692017 
	C196.692307,400.890076 192.780167,404.379608 188.823212,407.739716 
	C188.823212,407.739716 188.779465,407.758789 188.246796,407.864105 
	C188.011627,408.130188 187.776459,408.396271 187.228653,408.765442 
	C187.228653,408.765442 187.003113,409.005280 186.373611,409.050507 
	C185.822296,409.636871 185.270981,410.223236 184.353333,410.933197 
	C184.353333,410.933197 184.061478,411.186798 183.399536,411.174469 
	C182.168442,412.333069 180.937347,413.491699 179.821884,414.868408 
	C179.821884,414.868408 179.660004,414.682037 179.246292,414.734009 
	C179.246292,414.734009 178.992767,415.065033 178.534668,415.232849 
	C178.534668,415.232849 178.175522,415.563019 177.564774,415.539886 
	C176.591156,416.457397 175.617538,417.374939 174.316925,418.422699 
	C174.316925,418.422699 174.094742,418.695679 173.758209,418.498077 
	C173.758209,418.498077 173.439697,418.720795 173.439697,418.720795 
	C173.439697,418.720795 173.489410,419.106689 173.096848,419.363403 
	C173.096848,419.363403 172.816559,419.739502 172.160843,419.872894 
	C171.052719,420.876495 169.944595,421.880096 168.293304,423.059174 
	C167.770355,423.582062 167.247406,424.104919 166.028290,424.739197 
	C164.776886,425.766205 163.525467,426.793213 161.454666,428.492676 
	C310.658417,428.492676 458.466278,428.492676 606.274109,428.492676 
	C606.388428,428.150482 606.502747,427.808289 606.617004,427.466095 
	C605.158875,426.571899 603.700745,425.677734 602.108765,424.989319 
	C602.108765,424.989319 602.213257,424.767303 602.062988,424.128021 
	C600.693115,423.125763 599.323303,422.123505 597.670227,420.881653 
	C597.670227,420.881653 597.318970,420.762268 597.085083,420.125946 
	C595.455261,419.003815 593.825500,417.881683 592.186218,416.959747 
	C592.186218,416.959747 592.214905,416.756409 592.052063,416.123077 
	C590.674500,415.145752 589.296936,414.168396 587.627197,412.945282 
	C587.627197,412.945282 587.268555,412.814148 587.073669,412.209595 
	C586.381775,411.804779 585.689941,411.399963 584.690247,410.566376 
	C584.252502,410.278992 583.814819,409.991608 583.099365,409.207031 
	C582.750549,409.111389 582.401794,409.015747 582.056152,409.000458 
	C582.056152,409.000458 582.078552,408.921936 581.880737,408.280273 
	C577.566589,404.886902 573.252502,401.493500 568.643616,397.587677 
	C567.860901,396.983765 567.078186,396.379883 566.071350,395.162018 
	C565.025085,394.493225 563.978882,393.824463 562.686829,392.905731 
	C562.686829,392.905731 562.360046,392.778717 562.213989,392.224548 
	C561.756714,391.951233 561.299500,391.677917 560.514709,391.099579 
	C560.514709,391.099579 560.094299,390.946259 559.905151,390.452332 
	C559.593018,390.321228 559.280884,390.190125 558.763733,389.662323 
	C558.575439,389.411469 558.326904,389.258423 557.755554,388.818634 
	C557.755554,388.818634 557.300354,388.720612 557.100586,388.906006 
	C557.100586,388.906006 557.266541,388.689819 557.101196,388.045288 
	C555.458923,386.952057 553.816650,385.858826 552.132019,384.988647 
	C552.132019,384.988647 552.209961,384.775330 552.040100,384.149353 
	C551.010376,383.470520 549.980652,382.791656 548.718567,381.854706 
	C548.718567,381.854706 548.392517,381.735138 548.163330,381.236603 
	C547.844177,381.080444 547.525085,380.924286 547.258118,380.831238 
	C547.258118,380.831238 547.232483,380.751434 547.088867,380.101410 
	C544.379150,378.091248 541.669495,376.081085 538.697998,373.602051 
	C538.251648,373.317322 537.805298,373.032562 537.164185,372.095154 
	C532.211792,368.287476 527.259338,364.479797 522.194702,360.986664 
	C522.194702,360.986664 522.277222,360.663361 522.121826,360.195496 
	C521.920532,359.900177 521.641296,359.746674 521.098206,359.919617 
M523.986145,328.551331 
	C524.234070,328.499573 524.481934,328.447784 524.729858,328.395996 
	C524.576904,328.166473 524.423889,327.936981 524.285339,326.896423 
	C524.004944,325.425385 523.760010,323.946564 523.439087,322.484406 
	C505.242401,239.569275 487.045929,156.654099 468.832489,73.742638 
	C464.262695,52.939907 459.636566,32.149563 455.031006,11.329531 
	C413.043243,11.329531 371.297272,11.329531 329.519043,11.329531 
	C305.564270,114.673752 281.679749,217.714874 257.795227,320.755981 
	C258.110657,320.969666 258.426117,321.183319 258.741547,321.397003 
	C302.564880,288.089325 346.388184,254.781647 390.279053,221.422653 
	C391.570984,222.391006 392.648804,223.149963 393.673950,223.974380 
	C425.474792,249.548721 457.243927,275.162628 489.081177,300.691620 
	C500.604828,309.931976 512.289734,318.971252 523.986145,328.551331 
z"/>
<path fill="#242021" opacity="1.000000" stroke="none" 
	d="
M134.571533,1.000000 
	C139.743195,2.009555 144.472076,3.092789 149.231842,4.016924 
	C184.921631,10.946266 209.816544,30.637453 220.650604,65.902184 
	C224.093552,77.108887 226.656006,88.947395 227.191895,100.608444 
	C228.213654,122.842354 227.488358,145.156555 227.488358,167.716309 
	C198.893021,167.716309 169.820496,167.716309 140.122726,167.716309 
	C140.122726,165.714157 140.155197,163.775497 140.117676,161.838181 
	C139.759888,143.360184 139.781281,124.861954 138.816528,106.415413 
	C138.468414,99.759361 136.295792,93.024513 133.960892,86.692474 
	C131.284592,79.434578 125.380920,76.103569 117.507164,76.080086 
	C99.835297,76.027367 90.801285,83.485649 90.111931,101.279922 
	C89.151711,126.066223 89.250511,150.900665 89.230484,175.714767 
	C89.190948,224.693146 89.326874,273.671967 89.534973,322.649963 
	C89.566010,329.955688 89.883217,337.331970 90.950676,344.544983 
	C92.631035,355.899475 99.026306,361.642578 110.108559,362.921539 
	C123.614113,364.480164 132.495239,360.272247 137.184494,349.998291 
	C141.379578,340.807037 141.704758,330.938385 141.768555,321.115723 
	C141.887604,302.791901 141.711426,284.466187 141.659897,266.141235 
	C141.653824,263.979187 141.659073,261.817169 141.659073,259.305237 
	C171.028778,259.305237 200.221619,259.305237 229.893646,259.305237 
	C229.893646,261.371704 229.934845,263.325012 229.887405,265.276154 
	C229.272522,290.568298 228.742966,315.863495 227.857910,341.146271 
	C227.776123,343.482269 225.956314,346.449646 224.027023,347.926422 
	C186.216873,376.868103 148.270691,405.632019 110.176147,434.716125 
	C104.645073,435.000000 99.290138,435.000000 93.348312,434.622742 
	C88.517471,433.497864 84.260841,432.815338 80.031639,431.991974 
	C54.869438,427.093292 33.678524,415.869537 19.737680,393.483063 
	C9.692593,377.352417 5.344182,359.341888 2.933727,340.730347 
	C2.594870,338.113983 1.659343,335.574860 1.000000,333.000000 
	C1.000000,326.978851 1.000000,320.957703 1.296145,314.173492 
	C1.727909,312.100647 1.981727,310.790863 1.982166,309.481049 
	C2.002515,248.877502 2.008245,188.273956 1.959663,127.670433 
	C1.958415,126.113365 1.333864,124.556801 1.000000,123.000000 
	C1.000000,117.977905 1.000000,112.955818 1.391107,107.356110 
	C3.180990,98.095795 4.233168,89.340401 6.036297,80.742493 
	C15.786716,34.249321 42.169243,9.543400 89.133247,2.555487 
	C90.795845,2.308104 92.379532,1.530490 94.000000,1.000000 
	C95.714355,1.000000 97.428719,1.000000 99.755966,1.331532 
	C101.878304,1.749681 103.387749,1.836298 105.371155,1.954328 
	C112.268417,1.962241 118.691704,1.938743 125.475845,1.929651 
	C126.891136,1.629372 127.945564,1.314686 129.000000,1.000000 
	C130.714355,1.000000 132.428711,1.000000 134.571533,1.000000 
z"/>
<path fill="#242021" opacity="1.000000" stroke="none" 
	d="
M735.000000,87.531342 
	C711.527649,88.000000 688.055298,88.000000 664.082764,88.000000 
	C664.082764,201.467316 664.082764,314.520538 664.082764,427.930481 
	C655.584351,428.471405 648.342590,429.092590 641.044189,422.942352 
	C621.183777,406.206451 600.518494,390.419434 580.007324,374.468384 
	C576.744446,371.930847 575.656433,369.341248 575.661743,365.290802 
	C575.779602,274.797119 575.753723,184.303238 575.755066,93.809395 
	C575.755127,92.165413 575.755066,90.521439 575.755066,88.369843 
	C552.705505,88.369843 529.983215,88.369843 506.884155,88.369843 
	C506.884155,62.466301 506.884155,37.067863 506.884155,11.019179 
	C582.550537,11.019179 658.306702,11.019179 734.531494,11.009590 
	C735.000000,36.354229 735.000000,61.708454 735.000000,87.531342 
z"/>
<path fill="#FDFCFD" opacity="1.000000" stroke="none" 
	d="
M93.531342,1.000000 
	C92.379532,1.530490 90.795845,2.308104 89.133247,2.555487 
	C42.169243,9.543400 15.786716,34.249321 6.036297,80.742493 
	C4.233168,89.340401 3.180990,98.095795 1.391107,106.889252 
	C1.000000,71.744507 1.000000,36.489006 1.000000,1.000000 
	C31.687166,1.000000 62.374924,1.000000 93.531342,1.000000 
z"/>
<path fill="#FCFCFC" opacity="1.000000" stroke="none" 
	d="
M1.000000,333.468658 
	C1.659343,335.574860 2.594870,338.113983 2.933727,340.730347 
	C5.344182,359.341888 9.692593,377.352417 19.737680,393.483063 
	C33.678524,415.869537 54.869438,427.093292 80.031639,431.991974 
	C84.260841,432.815338 88.517471,433.497864 92.880707,434.622742 
	C62.402637,435.000000 31.805279,435.000000 1.000000,435.000000 
	C1.000000,401.312714 1.000000,367.625031 1.000000,333.468658 
z"/>
<path fill="#2E2A2B" opacity="1.000000" stroke="none" 
	d="
M1.000000,123.468658 
	C1.333864,124.556801 1.958415,126.113365 1.959663,127.670433 
	C2.008245,188.273956 2.002515,248.877502 1.982166,309.481049 
	C1.981727,310.790863 1.727909,312.100647 1.296145,313.705200 
	C1.000000,250.645767 1.000000,187.291550 1.000000,123.468658 
z"/>
<path fill="#373334" opacity="1.000000" stroke="none" 
	d="
M125.114990,1.915244 
	C118.691704,1.938743 112.268417,1.962241 105.407097,1.724992 
	C104.969063,1.464244 105.000000,1.000000 105.000000,1.000000 
	C111.354401,1.000000 117.708794,1.000000 124.541183,1.231218 
	C125.019173,1.462437 125.114990,1.915244 125.114990,1.915244 
z"/>
<path fill="#666263" opacity="1.000000" stroke="none" 
	d="
M104.583336,1.000000 
	C105.000000,1.000000 104.969063,1.464244 104.933121,1.693580 
	C103.387749,1.836298 101.878304,1.749681 100.184433,1.331532 
	C101.388893,1.000000 102.777779,1.000000 104.583336,1.000000 
z"/>
<path fill="#6B6768" opacity="1.000000" stroke="none" 
	d="
M125.475845,1.929651 
	C125.114990,1.915244 125.019173,1.462437 125.009583,1.231218 
	C126.066673,1.000000 127.133339,1.000000 128.600006,1.000000 
	C127.945564,1.314686 126.891136,1.629372 125.475845,1.929651 
z"/>
<path fill="#242021" opacity="1.000000" stroke="none" 
	d="
M523.901123,328.102295 
	C512.289734,318.971252 500.604828,309.931976 489.081177,300.691620 
	C457.243927,275.162628 425.474792,249.548721 393.673950,223.974380 
	C392.648804,223.149963 391.570984,222.391006 390.279053,221.422653 
	C346.388184,254.781647 302.564880,288.089325 258.741547,321.397003 
	C258.426117,321.183319 258.110657,320.969666 257.795227,320.755981 
	C281.679749,217.714874 305.564270,114.673752 329.519043,11.329531 
	C371.297272,11.329531 413.043243,11.329531 455.031006,11.329531 
	C459.636566,32.149563 464.262695,52.939907 468.832489,73.742638 
	C487.045929,156.654099 505.242401,239.569275 523.439087,322.484406 
	C523.760010,323.946564 524.004944,325.425385 524.186523,327.401398 
	C524.087646,327.906372 523.901123,328.102264 523.901123,328.102295 
M407.920563,170.519089 
	C402.105743,142.639450 396.290924,114.759811 390.476074,86.880173 
	C389.954926,86.884575 389.433746,86.888969 388.912598,86.893364 
	C381.767181,125.105331 374.621765,163.317307 367.563263,201.064636 
	C383.323822,201.064636 398.534882,201.064636 414.240875,201.064636 
	C412.049103,190.525650 410.055756,180.940811 407.920563,170.519089 
z"/>
<path fill="#FECA09" opacity="1.000000" stroke="none" 
	d="
M506.299713,347.796600 
	C506.576630,347.870148 506.815063,348.009521 507.173523,348.754517 
	C508.982727,350.411438 510.633484,351.528595 512.284241,352.645721 
	C512.284241,352.645721 511.995880,352.745331 512.163635,353.069824 
	C514.015076,354.505676 515.698730,355.617004 517.382385,356.728333 
	C517.382385,356.728333 517.715515,356.834442 517.891113,357.278564 
	C518.764343,358.095947 519.461975,358.469177 520.159607,358.842407 
	C520.159607,358.842407 520.099121,359.001465 520.187378,359.181946 
	C520.600464,359.476990 520.925293,359.591583 521.250061,359.706177 
	C521.250061,359.706177 521.098206,359.919617 521.205933,360.106995 
	C521.634888,360.417389 521.956055,360.540375 522.277222,360.663361 
	C522.277222,360.663361 522.194702,360.986664 522.268921,361.182251 
	C527.348450,365.167847 532.353699,368.957825 537.358948,372.747803 
	C537.805298,373.032562 538.251648,373.317322 538.858765,374.179047 
	C541.757141,376.754517 544.494812,378.752991 547.232483,380.751434 
	C547.232483,380.751434 547.258118,380.831238 547.292114,381.093994 
	C547.681641,381.482880 548.037048,381.609009 548.392517,381.735138 
	C548.392517,381.735138 548.718567,381.854706 548.869263,382.326477 
	C550.083252,383.457275 551.146606,384.116302 552.209961,384.775330 
	C552.209961,384.775330 552.132019,384.988647 552.216736,385.221924 
	C553.956482,386.533417 555.611511,387.611633 557.266541,388.689819 
	C557.266541,388.689819 557.100586,388.906006 557.143188,389.012268 
	C557.463257,389.146790 557.740662,389.175018 558.018066,389.203247 
	C558.326904,389.258423 558.575439,389.411469 558.958862,390.108093 
	C559.467407,390.684662 559.780823,390.815460 560.094299,390.946259 
	C560.094299,390.946259 560.514709,391.099579 560.739136,391.536438 
	C561.429077,392.241760 561.894531,392.510254 562.360046,392.778717 
	C562.360046,392.778717 562.686829,392.905731 562.850220,393.375000 
	C564.107605,394.488159 565.201538,395.132080 566.295471,395.776001 
	C567.078186,396.379883 567.860901,396.983765 568.817993,398.184692 
	C573.354370,402.161774 577.716492,405.541840 582.078552,408.921936 
	C582.078552,408.921936 582.056152,409.000458 582.187195,409.213989 
	C582.671204,409.519775 583.024109,409.612000 583.377075,409.704224 
	C583.814819,409.991608 584.252502,410.278992 584.887695,411.119995 
	C585.812927,412.053772 586.540710,412.433960 587.268555,412.814148 
	C587.268555,412.814148 587.627197,412.945282 587.821533,413.404388 
	C589.415527,414.827789 590.815186,415.792114 592.214905,416.756409 
	C592.214905,416.756409 592.186218,416.959747 592.246948,417.207825 
	C593.978088,418.558014 595.648499,419.660156 597.318970,420.762268 
	C597.318970,420.762268 597.670227,420.881653 597.853638,421.340210 
	C599.429077,422.788269 600.821167,423.777771 602.213257,424.767303 
	C602.213257,424.767303 602.108765,424.989319 602.030029,425.295410 
	C599.984070,426.069824 598.017151,426.947205 596.049805,426.948212 
	C459.432983,427.017883 322.816162,427.018250 186.199341,427.019958 
	C180.590302,427.020020 174.977036,427.080627 169.376495,426.850708 
	C168.463593,426.813171 167.607040,425.403351 166.724457,424.627808 
	C167.247406,424.104919 167.770355,423.582062 168.934082,422.992554 
	C170.655426,421.863770 171.735992,420.801636 172.816559,419.739502 
	C172.816559,419.739502 173.096848,419.363403 173.415558,419.205872 
	C173.891663,418.968872 174.011826,418.851318 174.094742,418.695679 
	C174.094742,418.695679 174.316925,418.422699 174.775269,418.316589 
	C176.214249,417.327972 177.194885,416.445496 178.175522,415.563019 
	C178.175522,415.563019 178.534668,415.232849 178.869781,415.325562 
	C179.356598,415.172852 179.508301,414.927429 179.660004,414.682037 
	C179.660004,414.682037 179.821884,414.868408 180.113312,414.858093 
	C181.623657,413.627441 182.842560,412.407135 184.061478,411.186798 
	C184.061478,411.186798 184.353333,410.933197 184.881577,410.907715 
	C185.940918,410.256592 186.472015,409.630951 187.003113,409.005280 
	C187.003113,409.005280 187.228653,408.765442 187.689331,408.732727 
	C188.359833,408.386261 188.569656,408.072540 188.779465,407.758789 
	C188.779465,407.758789 188.823212,407.739716 189.160889,407.799622 
	C192.254639,406.136292 195.139206,404.586212 197.741470,402.655609 
	C204.209442,397.857178 210.671127,393.034790 216.900497,387.935120 
	C221.806122,383.919067 226.361572,379.475281 231.072571,375.221497 
	C231.072571,375.221497 231.344116,374.941864 231.899429,374.919922 
	C237.312698,370.956482 242.170670,367.014984 247.028625,363.073486 
	C247.028641,363.073486 247.265808,362.821442 247.803009,362.841187 
	C251.377075,360.985291 254.664444,359.414703 257.398499,357.170166 
	C263.021667,352.553741 268.348877,347.576874 273.797882,342.748322 
	C273.797882,342.748322 273.827972,342.994385 274.175140,342.955444 
	C279.347473,338.943329 284.172607,334.970093 288.997742,330.996857 
	C288.997742,330.996857 289.000000,331.000000 289.378326,331.014038 
	C292.867401,331.261963 294.267303,329.512207 294.760986,326.711823 
	C294.760986,326.711823 294.799347,326.956421 295.135193,326.906158 
	C300.179504,323.531769 304.986481,320.335938 309.554962,316.829346 
	C311.836029,315.078552 313.681152,312.759735 315.723450,310.697845 
	C315.723450,310.697845 316.016724,310.846039 316.222961,310.845459 
	C317.652618,309.657410 318.876038,308.469940 320.099457,307.282471 
	C320.353790,307.008972 320.608093,306.735474 321.439270,306.277832 
	C322.967438,305.867889 324.126862,305.915710 324.838623,305.374695 
	C333.823059,298.545349 342.796021,291.698212 351.643860,284.693848 
	C354.012756,282.818481 355.949432,280.397125 358.084503,278.226410 
	C358.084503,278.226410 358.336578,277.944061 358.880188,277.912292 
	C364.631805,273.628876 369.839783,269.377258 375.047760,265.125671 
	C375.047760,265.125671 375.270691,264.873871 375.786438,264.808380 
	C377.422668,263.713715 378.543121,262.684540 379.663574,261.655365 
	C379.663574,261.655365 379.853394,261.781555 380.144531,261.797333 
	C382.114380,260.856873 384.212280,260.257721 385.390320,258.874878 
	C388.460815,255.270752 390.610748,255.969437 393.807587,259.007050 
	C396.775360,261.826965 400.768829,263.567383 404.310699,265.783112 
	C404.591034,265.862579 404.823273,266.015259 405.139343,266.777618 
	C410.650330,274.134613 417.257874,279.373413 425.249115,282.830658 
	C425.249115,282.830658 425.627899,282.936554 425.827728,283.392334 
	C428.372528,285.547882 430.717499,287.247681 433.062469,288.947449 
	C433.062469,288.947449 433.002930,289.000641 433.036621,289.321564 
	C435.472198,291.366425 437.874115,293.090363 440.276001,294.814301 
	C440.562439,294.887817 440.807709,295.031586 441.153442,295.720154 
	C441.632446,296.331482 441.969788,296.468231 442.307129,296.605011 
	C442.307129,296.605011 442.288788,296.774323 442.328796,297.055145 
	C449.501678,303.349579 456.554138,309.462677 463.810516,315.323364 
	C466.386353,317.403748 469.458160,318.869995 472.303558,320.616608 
	C472.303558,320.616608 472.041290,320.766113 472.188660,321.066711 
	C476.640198,324.524811 480.944336,327.682343 485.248444,330.839905 
	C485.248444,330.839905 485.614044,331.006897 485.800476,331.435120 
	C486.439880,332.114380 486.892853,332.365387 487.345795,332.616394 
	C487.345795,332.616394 487.082397,332.896667 487.220886,333.121460 
	C491.128540,337.957031 495.060364,342.349182 501.262299,343.690186 
	C501.262299,343.690186 501.091370,343.696381 501.227448,344.009644 
	C501.721283,344.439240 502.079071,344.555603 502.436829,344.671967 
	C502.436829,344.671967 502.755493,344.794159 502.896484,345.274841 
	C504.124878,346.435852 505.212280,347.116241 506.299713,347.796600 
z"/>
<path fill="#F3D450" opacity="1.000000" stroke="none" 
	d="
M166.376373,424.683502 
	C167.607040,425.403351 168.463593,426.813171 169.376495,426.850708 
	C174.977036,427.080627 180.590302,427.020020 186.199341,427.019958 
	C322.816162,427.018250 459.432983,427.017883 596.049805,426.948212 
	C598.017151,426.947205 599.984070,426.069824 602.096924,425.192505 
	C603.700745,425.677734 605.158875,426.571899 606.617004,427.466095 
	C606.502747,427.808289 606.388428,428.150482 606.274109,428.492676 
	C458.466278,428.492676 310.658417,428.492676 161.454666,428.492676 
	C163.525467,426.793213 164.776886,425.766205 166.376373,424.683502 
z"/>
<path fill="#F4D34A" opacity="1.000000" stroke="none" 
	d="
M230.728729,375.210724 
	C226.361572,379.475281 221.806122,383.919067 216.900497,387.935120 
	C210.671127,393.034790 204.209442,397.857178 197.741470,402.655609 
	C195.139206,404.586212 192.254639,406.136292 189.132095,407.798126 
	C192.780167,404.379608 196.692307,400.890076 200.829742,397.692017 
	C210.624527,390.120972 220.526352,382.688477 230.728729,375.210724 
z"/>
<path fill="#F4D34A" opacity="1.000000" stroke="none" 
	d="
M357.741028,278.213257 
	C355.949432,280.397125 354.012756,282.818481 351.643860,284.693848 
	C342.796021,291.698212 333.823059,298.545349 324.838623,305.374695 
	C324.126862,305.915710 322.967438,305.867889 321.658081,306.102692 
	C331.451996,298.161591 341.595581,290.200775 351.763702,282.271454 
	C353.589600,280.847595 355.516998,279.553925 357.741028,278.213257 
z"/>
<path fill="#F4D34A" opacity="1.000000" stroke="none" 
	d="
M472.214539,320.301880 
	C469.458160,318.869995 466.386353,317.403748 463.810516,315.323364 
	C456.554138,309.462677 449.501678,303.349579 442.372009,296.981781 
	C449.567566,302.044617 456.803131,307.405609 463.931030,312.906189 
	C466.784607,315.108276 469.401093,317.617676 472.214539,320.301880 
z"/>
<path fill="#F4D34A" opacity="1.000000" stroke="none" 
	d="
M273.448486,342.783539 
	C268.348877,347.576874 263.021667,352.553741 257.398499,357.170166 
	C254.664444,359.414703 251.377075,360.985291 247.965729,362.782349 
	C256.093903,356.075378 264.596497,349.447083 273.448486,342.783539 
z"/>
<path fill="#F4D34A" opacity="1.000000" stroke="none" 
	d="
M404.205719,265.461304 
	C400.768829,263.567383 396.775360,261.826965 393.807587,259.007050 
	C390.610748,255.969437 388.460815,255.270752 385.390320,258.874878 
	C384.212280,260.257721 382.114380,260.856873 380.070099,261.710999 
	C382.447113,259.300568 385.090271,256.853394 387.996460,254.773697 
	C388.804382,254.195541 390.778168,254.202667 391.556732,254.800827 
	C395.851013,258.100037 399.940826,261.665405 404.205719,265.461304 
z"/>
<path fill="#F4D34A" opacity="1.000000" stroke="none" 
	d="
M425.151428,282.505798 
	C417.257874,279.373413 410.650330,274.134613 405.246582,266.959320 
	C411.832458,271.796661 418.443085,276.988800 425.151428,282.505798 
z"/>
<path fill="#F4D34A" opacity="1.000000" stroke="none" 
	d="
M315.378540,310.728851 
	C313.681152,312.759735 311.836029,315.078552 309.554962,316.829346 
	C304.986481,320.335938 300.179504,323.531769 295.107483,326.782410 
	C301.507172,321.392578 308.270386,316.076233 315.378540,310.728851 
z"/>
<path fill="#F4D34A" opacity="1.000000" stroke="none" 
	d="
M374.701843,265.144684 
	C369.839783,269.377258 364.631805,273.628876 359.052856,277.834869 
	C363.906586,273.580719 369.131256,269.372192 374.701843,265.144684 
z"/>
<path fill="#F4D34A" opacity="1.000000" stroke="none" 
	d="
M288.652161,331.036774 
	C284.172607,334.970093 279.347473,338.943329 274.148804,342.833221 
	C278.619049,338.858826 283.462830,334.967773 288.652161,331.036774 
z"/>
<path fill="#F4D34A" opacity="1.000000" stroke="none" 
	d="
M246.680389,363.083069 
	C242.170670,367.014984 237.312698,370.956482 232.081482,374.850281 
	C236.582840,370.899292 241.457489,366.995972 246.680389,363.083069 
z"/>
<path fill="#F4D34A" opacity="1.000000" stroke="none" 
	d="
M537.261597,372.421478 
	C532.353699,368.957825 527.348450,365.167847 522.325073,361.024994 
	C527.259338,364.479797 532.211792,368.287476 537.261597,372.421478 
z"/>
<path fill="#F4D34A" opacity="1.000000" stroke="none" 
	d="
M501.164978,343.375305 
	C495.060364,342.349182 491.128540,337.957031 487.366272,332.995544 
	C491.937927,336.116699 496.502777,339.588562 501.164978,343.375305 
z"/>
<path fill="#F3D450" opacity="1.000000" stroke="none" 
	d="
M581.979614,408.601105 
	C577.716492,405.541840 573.354370,402.161774 568.965332,398.440918 
	C573.252502,401.493500 577.566589,404.886902 581.979614,408.601105 
z"/>
<path fill="#F4D34A" opacity="1.000000" stroke="none" 
	d="
M485.152893,330.514496 
	C480.944336,327.682343 476.640198,324.524811 472.329315,321.011902 
	C476.567474,323.834045 480.812408,327.011566 485.152893,330.514496 
z"/>
<path fill="#F4D34A" opacity="1.000000" stroke="none" 
	d="
M547.160645,380.426422 
	C544.494812,378.752991 541.757141,376.754517 538.989624,374.413513 
	C541.669495,376.081085 544.379150,378.091248 547.160645,380.426422 
z"/>
<path fill="#F4D34A" opacity="1.000000" stroke="none" 
	d="
M432.994324,288.620422 
	C430.717499,287.247681 428.372528,285.547882 425.982483,283.513672 
	C428.266968,284.883942 430.596558,286.588654 432.994324,288.620422 
z"/>
<path fill="#F4D34A" opacity="1.000000" stroke="none" 
	d="
M440.159546,294.499939 
	C437.874115,293.090363 435.472198,291.366425 433.060211,289.289551 
	C435.381073,290.686249 437.712067,292.435913 440.159546,294.499939 
z"/>
<path fill="#F4D34A" opacity="1.000000" stroke="none" 
	d="
M294.421753,326.739777 
	C294.267303,329.512207 292.867401,331.261963 289.376831,331.012817 
	C290.692200,329.587646 292.387360,328.177673 294.421753,326.739777 
z"/>
<path fill="#F4D34A" opacity="1.000000" stroke="none" 
	d="
M512.188477,352.331604 
	C510.633484,351.528595 508.982727,350.411438 507.295868,348.924072 
	C508.870697,349.708374 510.481689,350.862946 512.188477,352.331604 
z"/>
<path fill="#F3D450" opacity="1.000000" stroke="none" 
	d="
M597.202026,420.444092 
	C595.648499,419.660156 593.978088,418.558014 592.251648,417.107727 
	C593.825500,417.881683 595.455261,419.003815 597.202026,420.444092 
z"/>
<path fill="#F4D34A" opacity="1.000000" stroke="none" 
	d="
M557.183838,388.367554 
	C555.611511,387.611633 553.956482,386.533417 552.237915,385.110413 
	C553.816650,385.858826 555.458923,386.952057 557.183838,388.367554 
z"/>
<path fill="#F4D34A" opacity="1.000000" stroke="none" 
	d="
M517.270264,356.406342 
	C515.698730,355.617004 514.015076,354.505676 512.311951,353.035065 
	C513.914368,353.811981 515.536316,354.948151 517.270264,356.406342 
z"/>
<path fill="#F3D450" opacity="1.000000" stroke="none" 
	d="
M602.138123,424.447662 
	C600.821167,423.777771 599.429077,422.788269 597.995239,421.459961 
	C599.323303,422.123505 600.693115,423.125763 602.138123,424.447662 
z"/>
<path fill="#F3D450" opacity="1.000000" stroke="none" 
	d="
M592.133484,416.439758 
	C590.815186,415.792114 589.415527,414.827789 587.967590,413.527283 
	C589.296936,414.168396 590.674500,415.145752 592.133484,416.439758 
z"/>
<path fill="#F4D34A" opacity="1.000000" stroke="none" 
	d="
M183.730499,411.180634 
	C182.842560,412.407135 181.623657,413.627441 180.055511,414.749023 
	C180.937347,413.491699 182.168442,412.333069 183.730499,411.180634 
z"/>
<path fill="#F4D34A" opacity="1.000000" stroke="none" 
	d="
M319.770935,307.257751 
	C318.876038,308.469940 317.652618,309.657410 316.083344,310.758514 
	C316.972473,309.525757 318.207458,308.379395 319.770935,307.257751 
z"/>
<path fill="#F3D450" opacity="1.000000" stroke="none" 
	d="
M172.488708,419.806213 
	C171.735992,420.801636 170.655426,421.863770 169.205658,422.904816 
	C169.944595,421.880096 171.052719,420.876495 172.488708,419.806213 
z"/>
<path fill="#F4D34A" opacity="1.000000" stroke="none" 
	d="
M506.178101,347.494690 
	C505.212280,347.116241 504.124878,346.435852 503.008789,345.403259 
	C504.005585,345.764954 505.031036,346.478851 506.178101,347.494690 
z"/>
<path fill="#F4D34A" opacity="1.000000" stroke="none" 
	d="
M379.335327,261.703796 
	C378.543121,262.684540 377.422668,263.713715 375.943726,264.748932 
	C376.725861,263.754059 377.866455,262.753143 379.335327,261.703796 
z"/>
<path fill="#F3D450" opacity="1.000000" stroke="none" 
	d="
M566.183411,395.468994 
	C565.201538,395.132080 564.107605,394.488159 562.973145,393.499939 
	C563.978882,393.824463 565.025085,394.493225 566.183411,395.468994 
z"/>
<path fill="#F4D34A" opacity="1.000000" stroke="none" 
	d="
M552.125000,384.462341 
	C551.146606,384.116302 550.083252,383.457275 548.985413,382.455505 
	C549.980652,382.791656 551.010376,383.470520 552.125000,384.462341 
z"/>
<path fill="#F3D450" opacity="1.000000" stroke="none" 
	d="
M177.870148,415.551453 
	C177.194885,416.445496 176.214249,417.327972 174.938782,418.251465 
	C175.617538,417.374939 176.591156,416.457397 177.870148,415.551453 
z"/>
<path fill="#F4D34A" opacity="1.000000" stroke="none" 
	d="
M186.688354,409.027893 
	C186.472015,409.630951 185.940918,410.256592 185.064758,410.845886 
	C185.270981,410.223236 185.822296,409.636871 186.688354,409.027893 
z"/>
<path fill="#F3D450" opacity="1.000000" stroke="none" 
	d="
M587.171143,412.511871 
	C586.540710,412.433960 585.812927,412.053772 585.041565,411.334351 
	C585.689941,411.399963 586.381775,411.804779 587.171143,412.511871 
z"/>
<path fill="#F4D34A" opacity="1.000000" stroke="none" 
	d="
M520.070679,358.547119 
	C519.461975,358.469177 518.764343,358.095947 518.019531,357.397125 
	C518.642212,357.464966 519.312012,357.858398 520.070679,358.547119 
z"/>
<path fill="#F3D450" opacity="1.000000" stroke="none" 
	d="
M562.286987,392.501648 
	C561.894531,392.510254 561.429077,392.241760 560.902893,391.688934 
	C561.299500,391.677917 561.756714,391.951233 562.286987,392.501648 
z"/>
<path fill="#F4D34A" opacity="1.000000" stroke="none" 
	d="
M487.282654,332.350281 
	C486.892853,332.365387 486.439880,332.114380 485.938782,331.580963 
	C486.333588,331.560425 486.776581,331.822266 487.282654,332.350281 
z"/>
<path fill="#F4D34A" opacity="1.000000" stroke="none" 
	d="
M442.217743,296.362183 
	C441.969788,296.468231 441.632446,296.331482 441.275330,295.897705 
	C441.546509,295.773590 441.837433,295.946503 442.217743,296.362183 
z"/>
<path fill="#F4D34A" opacity="1.000000" stroke="none" 
	d="
M557.886841,389.010925 
	C557.740662,389.175018 557.463257,389.146790 557.243103,388.919586 
	C557.300354,388.720612 557.755554,388.818634 557.886841,389.010925 
z"/>
<path fill="#242021" opacity="1.000000" stroke="none" 
	d="
M524.179321,327.806946 
	C524.423889,327.936981 524.576904,328.166473 524.729858,328.395996 
	C524.481934,328.447784 524.234070,328.499573 523.943604,328.326782 
	C523.901123,328.102264 524.087646,327.906372 524.179321,327.806946 
z"/>
<path fill="#F3D450" opacity="1.000000" stroke="none" 
	d="
M173.926483,418.596863 
	C174.011826,418.851318 173.891663,418.968872 173.611832,419.077515 
	C173.489410,419.106689 173.439697,418.720795 173.439697,418.720795 
	C173.439697,418.720795 173.758209,418.498077 173.926483,418.596863 
z"/>
<path fill="#F4D34A" opacity="1.000000" stroke="none" 
	d="
M179.453156,414.708008 
	C179.508301,414.927429 179.356598,415.172852 179.098831,415.241638 
	C178.992767,415.065033 179.246292,414.734009 179.453156,414.708008 
z"/>
<path fill="#F4D34A" opacity="1.000000" stroke="none" 
	d="
M502.317596,344.430725 
	C502.079071,344.555603 501.721283,344.439240 501.311310,344.026215 
	C501.572205,343.882812 501.885284,344.036133 502.317596,344.430725 
z"/>
<path fill="#F4D34A" opacity="1.000000" stroke="none" 
	d="
M521.152832,359.465271 
	C520.925293,359.591583 520.600464,359.476990 520.201721,359.098145 
	C520.437012,358.964050 520.746338,359.094177 521.152832,359.465271 
z"/>
<path fill="#F3D450" opacity="1.000000" stroke="none" 
	d="
M583.238220,409.455627 
	C583.024109,409.612000 582.671204,409.519775 582.185608,409.173828 
	C582.401794,409.015747 582.750549,409.111389 583.238220,409.455627 
z"/>
<path fill="#F4D34A" opacity="1.000000" stroke="none" 
	d="
M188.513123,407.811462 
	C188.569656,408.072540 188.359833,408.386261 187.845657,408.681183 
	C187.776459,408.396271 188.011627,408.130188 188.513123,407.811462 
z"/>
<path fill="#F4D34A" opacity="1.000000" stroke="none" 
	d="
M522.199524,360.429443 
	C521.956055,360.540375 521.634888,360.417389 521.298889,360.014709 
	C521.641296,359.746674 521.920532,359.900177 522.199524,360.429443 
z"/>
<path fill="#F4D34A" opacity="1.000000" stroke="none" 
	d="
M548.277954,381.485870 
	C548.037048,381.609009 547.681641,381.482880 547.266052,381.062439 
	C547.525085,380.924286 547.844177,381.080444 548.277954,381.485870 
z"/>
<path fill="#F3D450" opacity="1.000000" stroke="none" 
	d="
M559.999756,390.699280 
	C559.780823,390.815460 559.467407,390.684662 559.061340,390.306396 
	C559.280884,390.190125 559.593018,390.321228 559.999756,390.699280 
z"/>
<path fill="#FBFBFB" opacity="1.000000" stroke="none" 
	d="
M407.991486,170.937531 
	C410.055756,180.940811 412.049103,190.525650 414.240875,201.064636 
	C398.534882,201.064636 383.323822,201.064636 367.563263,201.064636 
	C374.621765,163.317307 381.767181,125.105331 388.912598,86.893364 
	C389.433746,86.888969 389.954926,86.884575 390.476074,86.880173 
	C396.290924,114.759811 402.105743,142.639450 407.991486,170.937531 
z"/>
</svg>