<svg version="1.1" id="Layer_1" xmlns="http://www.w3.org/2000/svg" xmlns:xlink="http://www.w3.org/1999/xlink" x="0px" y="0px"
	 width="100%" viewBox="0 0 1180 665" enable-background="new 0 0 1180 665" xml:space="preserve">
<path fill="#FFFFFF" opacity="1.000000" stroke="none" 
	d="
M862.000000,666.000000 
	C574.666687,666.000000 287.833374,666.000000 1.000039,666.000000 
	C1.000026,444.333374 1.000026,222.666733 1.000013,1.000068 
	C394.333282,1.000046 787.666565,1.000046 1181.000000,1.000023 
	C1181.000000,222.666611 1181.000000,444.333221 1181.000000,665.999878 
	C1074.833374,666.000000 968.666687,666.000000 862.000000,666.000000 
M20.023939,40.514328 
	C20.023939,239.561890 20.023939,438.609467 20.023939,638.090027 
	C381.392761,537.304871 742.067261,436.713348 1102.741821,336.121857 
	C1102.682373,335.799530 1102.623047,335.477234 1102.563721,335.154907 
	C741.833008,232.468002 381.102325,129.781082 20.023939,26.995180 
	C20.023939,31.539141 20.023939,35.530151 20.023939,40.514328 
z"/>
<path fill="#017C52" opacity="1.000000" stroke="none" 
	d="
M20.023939,40.017746 
	C20.023939,35.530151 20.023939,31.539141 20.023939,26.995180 
	C381.102325,129.781082 741.833008,232.468002 1102.563721,335.154907 
	C1102.623047,335.477234 1102.682373,335.799530 1102.741821,336.121857 
	C742.067261,436.713348 381.392761,537.304871 20.023939,638.090027 
	C20.023939,438.609467 20.023939,239.561890 20.023939,40.017746 
M636.857361,330.631592 
	C636.574829,330.682159 636.292358,330.732758 635.264832,330.877411 
	C634.520508,330.807892 633.776245,330.738373 633.021118,329.883240 
	C632.972839,328.837738 632.924561,327.792236 632.844177,325.841766 
	C632.844177,319.244904 632.844177,312.648041 632.844177,305.871887 
	C617.738647,306.377289 603.961670,309.620209 591.584534,317.528625 
	C582.062561,323.612701 574.790405,331.642853 571.596436,342.795441 
	C566.609680,360.208160 579.230042,374.132019 596.867188,370.327881 
	C602.741882,369.060760 608.344360,366.531311 614.090759,364.572296 
	C615.394775,367.924072 613.927673,369.560272 610.630676,371.178650 
	C606.359009,373.275360 602.142334,375.901703 598.671021,379.127625 
	C590.576111,386.650269 586.951416,396.133270 589.521484,407.123535 
	C591.726807,416.553497 599.488403,421.884338 610.835815,422.728760 
	C620.834412,423.472778 630.489136,418.020844 633.631531,408.370605 
	C635.748474,401.869537 635.931580,394.741058 637.011414,387.898193 
	C637.230713,386.508301 637.114075,384.482483 637.962769,383.866425 
	C645.168457,378.636322 652.561768,373.664764 658.177979,369.799896 
	C664.508240,373.051147 669.151306,376.480133 674.343750,377.899780 
	C687.959900,381.622498 701.334290,379.573425 714.344849,374.376404 
	C716.137878,373.660187 718.496948,373.348755 720.308716,373.860260 
	C730.091675,376.622101 739.323120,375.850342 748.131531,370.592316 
	C764.119751,361.048431 780.128723,351.539154 796.170288,342.085388 
	C797.853394,341.093445 799.756531,340.334717 801.656372,339.881348 
	C805.190796,339.037842 808.314087,339.724548 810.096863,343.330444 
	C811.871643,346.919952 811.323975,350.275696 808.295654,352.803192 
	C805.763611,354.916473 802.988098,356.875427 800.033691,358.313873 
	C795.288025,360.624359 790.305847,362.448914 785.319580,364.522064 
	C785.319580,371.395996 785.319580,378.316803 785.319580,385.499908 
	C787.626465,385.328308 789.601440,385.222443 791.567810,385.028870 
	C813.417236,382.877777 831.227539,366.485992 834.576782,345.461670 
	C837.056335,329.896881 827.160217,317.750885 811.440735,318.219055 
	C804.969116,318.411804 798.024902,319.746338 792.242249,322.528778 
	C780.146790,328.348755 768.705505,335.521149 756.944092,342.045349 
	C751.086548,345.294586 745.115479,348.339203 738.158020,352.026367 
	C739.247742,347.842407 740.064087,345.192810 740.619690,342.489624 
	C742.871887,331.532776 738.239258,321.959167 728.673889,317.620636 
	C713.179810,310.593109 695.272034,319.825775 693.113281,336.648071 
	C692.163452,344.050171 693.364563,351.728333 693.599670,359.636414 
	C686.720093,362.421692 681.206421,361.210083 677.346924,355.908630 
	C681.139221,348.601227 685.329285,341.761200 688.337402,334.435883 
	C692.619812,324.007538 695.129456,313.116272 690.912292,301.925812 
	C687.857971,293.821045 681.430542,289.645508 673.248413,288.220734 
	C665.582886,286.885956 659.677734,290.414185 654.954773,296.151825 
	C648.716187,303.730865 645.922058,312.650085 644.936890,322.281158 
	C643.819702,333.202759 645.482117,343.773346 649.046509,354.466156 
	C645.104553,355.795929 641.414978,357.040588 637.125977,358.487457 
	C637.125977,355.571808 637.136414,353.434387 637.124084,351.297119 
	C637.085022,344.519531 637.037415,337.742035 636.857361,330.631592 
M447.858063,387.811829 
	C448.255920,398.253326 449.880005,408.388794 456.314636,417.029724 
	C463.023010,426.038269 473.655548,426.770782 481.795288,418.991241 
	C487.570496,413.471649 490.252136,406.323578 491.938202,398.806030 
	C496.484924,378.534088 495.355865,358.136627 493.183838,337.691589 
	C492.893707,334.960968 494.462463,332.032867 495.170380,329.196198 
	C498.063721,330.475616 501.511963,331.164948 503.686066,333.209290 
	C505.650574,335.056519 506.664856,338.286102 507.289062,341.086487 
	C507.966705,344.126587 507.739136,347.373871 507.855072,350.532715 
	C508.164124,358.956390 508.445618,367.381104 508.750183,376.153839 
	C515.862488,376.153839 522.286499,376.153839 529.126648,376.153839 
	C529.126648,374.346375 529.087463,372.704102 529.133179,371.064209 
	C529.374084,362.412140 529.537720,353.756165 529.930298,345.110748 
	C530.149658,340.279358 533.151550,337.074493 537.058594,336.958008 
	C541.110229,336.837219 544.487183,340.241364 544.947144,345.048187 
	C545.105225,346.699829 544.998230,348.377563 544.998962,350.043396 
	C545.002197,357.016388 545.000305,363.989380 545.000305,371.399292 
	C552.029663,371.399292 558.784973,371.399292 566.581604,371.399292 
	C566.581604,362.804047 567.168518,354.160370 566.385132,345.642761 
	C565.817505,339.471130 564.175781,333.141113 561.686462,327.463318 
	C557.894836,318.815216 550.711487,313.701324 541.005493,315.067871 
	C534.870422,315.931641 529.020691,318.822662 522.625183,320.942902 
	C516.834473,309.034302 505.767303,303.468292 491.069763,304.113464 
	C489.493225,280.661591 487.948456,257.682587 486.425903,235.033585 
	C479.416565,235.033585 473.199402,235.033585 466.909729,235.033585 
	C466.909729,236.883621 466.841461,238.200272 466.919861,239.508148 
	C468.343567,263.256836 469.817230,287.002716 471.152161,310.756348 
	C471.244171,312.393921 470.811310,314.486176 469.811218,315.696686 
	C452.676941,336.437012 447.379639,360.776337 447.858063,387.811829 
M150.901154,297.010498 
	C150.317581,294.761566 149.881775,292.461639 149.126099,290.272095 
	C144.671204,277.364349 132.998657,274.349243 122.895958,283.519989 
	C116.212509,289.586884 113.005661,297.563873 111.022469,306.112183 
	C108.434105,317.269043 108.488029,328.523712 109.698158,339.862762 
	C109.920013,341.941559 109.161201,345.636658 107.919029,346.105438 
	C101.641579,348.474548 95.150543,350.707520 88.544540,351.633423 
	C83.699890,352.312408 78.843750,350.380463 75.906136,345.113739 
	C87.232407,344.174652 98.632812,343.557037 102.594391,330.679047 
	C105.150223,322.370697 102.571526,314.646179 96.080124,308.933624 
	C86.809517,300.775330 77.063423,303.275391 67.589508,309.051361 
	C64.895981,300.884796 66.157211,292.964233 71.722824,287.034973 
	C81.951729,276.137695 94.224045,277.856506 107.458015,282.678436 
	C107.458015,275.031189 107.612099,268.053101 107.321228,261.093628 
	C107.266487,259.783630 105.646133,257.747742 104.390427,257.420715 
	C99.757896,256.214294 94.992897,254.985336 90.245766,254.844925 
	C72.565117,254.321960 57.772057,260.447418 48.323456,275.959808 
	C39.515682,290.420166 41.525528,305.728760 47.329838,320.616669 
	C49.729050,326.770599 51.730221,332.560516 50.635704,339.309357 
	C50.149757,342.305756 50.889843,345.629883 51.621799,348.673370 
	C55.562210,365.057343 71.393333,375.319641 90.137093,374.381470 
	C101.552719,373.810059 111.853973,370.182404 121.453995,364.524048 
	C131.619507,372.432312 142.299133,373.346710 153.488297,368.039154 
	C154.978027,367.332489 156.726517,365.396118 156.849014,363.905426 
	C157.265930,358.832062 157.008453,353.703308 157.008453,349.058228 
	C152.531754,350.117218 148.296082,351.648224 143.963623,352.005432 
	C138.944046,352.419281 138.170670,350.708191 140.247238,346.071716 
	C147.106888,330.755707 152.345276,315.069611 150.901154,297.010498 
M180.033676,280.556732 
	C163.264603,300.810760 161.135132,332.165039 175.018921,354.393982 
	C185.392746,371.003235 202.332825,379.148376 221.533249,375.049164 
	C231.276794,372.968933 240.539093,368.466278 249.852646,364.652557 
	C252.336975,363.635254 253.954163,363.486511 256.613800,364.339081 
	C262.515900,366.231140 268.862305,368.502228 274.836884,368.057526 
	C290.062927,366.924133 299.616028,358.063049 303.354797,343.187622 
	C310.781525,343.046173 313.806091,345.922424 313.846375,353.168915 
	C313.876556,358.602905 313.852325,364.037170 313.852325,369.728455 
	C319.468048,369.728455 324.739624,369.728455 330.848297,369.728455 
	C330.848297,363.273834 330.880127,356.979767 330.837738,350.686218 
	C330.806549,346.060150 333.016083,343.182587 337.404236,341.879608 
	C338.806030,341.463379 340.191772,340.993103 341.684265,340.515778 
	C341.684265,334.244812 341.684265,328.160004 341.684265,321.930542 
	C335.471283,320.651031 330.891571,323.197266 327.536896,326.815063 
	C323.209045,324.158661 319.389343,321.597656 315.359772,319.426086 
	C313.117676,318.217712 300.329559,309.906586 298.639893,307.949402 
	C288.947357,296.722626 274.443695,297.961334 267.286865,310.998199 
	C265.093750,314.993134 264.388519,319.804840 263.042755,324.111969 
	C253.782135,317.766418 240.947205,327.196838 241.228134,337.648712 
	C241.388779,343.625366 238.885727,346.463135 234.177979,348.588165 
	C231.155746,349.952393 228.233582,351.641571 225.090027,352.614838 
	C214.957138,355.752014 205.668320,354.288330 197.857910,346.659912 
	C186.859787,335.918060 183.955124,315.420227 191.252197,300.610504 
	C197.850113,287.219788 212.021637,280.381409 228.598389,282.585815 
	C232.306702,283.078979 236.016449,283.561279 240.154144,284.104889 
	C240.154144,276.874298 240.154144,270.105988 240.154144,262.856903 
	C217.765778,260.007660 196.964127,262.248627 180.033676,280.556732 
M427.829987,326.028839 
	C430.327576,317.970551 428.963440,310.727356 422.513458,305.115509 
	C415.710938,299.196869 407.863403,298.637512 399.638123,301.966797 
	C390.008759,305.864380 383.834106,313.401917 379.016357,322.136536 
	C377.132172,325.552612 375.114319,326.130005 371.776978,324.363403 
	C373.097107,310.038818 374.407684,295.818115 375.746704,281.288605 
	C369.453888,281.288605 363.377808,281.288605 357.131714,281.288605 
	C356.494995,288.247742 355.831482,295.016724 355.267822,301.794006 
	C354.692902,308.706604 354.216156,315.627350 353.699371,322.505249 
	C351.244080,322.795197 349.342255,323.019806 347.267700,323.264801 
	C347.267700,329.401764 347.267700,335.200012 347.267700,341.239655 
	C348.563232,341.625854 349.922546,342.031067 351.216949,342.416901 
	C351.216949,352.460510 351.216949,362.237518 351.216949,372.419189 
	C357.442566,372.419189 363.478180,372.419189 369.987885,372.419189 
	C369.987885,365.236359 369.904938,358.422546 370.061432,351.614166 
	C370.090942,350.331451 371.074463,349.070648 371.617737,347.799744 
	C373.010986,348.479248 374.926086,348.802124 375.686218,349.914337 
	C377.156616,352.065796 378.018524,354.643951 379.058777,357.076843 
	C387.065582,375.802979 410.587524,383.743103 427.095306,373.143036 
	C428.712097,372.104797 430.621735,370.084473 430.738373,368.404907 
	C431.171295,362.169952 430.910919,355.886841 430.910919,349.521576 
	C412.426666,357.654358 406.820038,357.595612 401.837585,349.164520 
	C412.387848,343.987244 422.587769,338.360046 427.829987,326.028839 
M753.288147,320.772736 
	C766.219604,312.735504 779.151001,304.698273 792.361450,296.487610 
	C788.765076,290.307892 785.377991,284.487732 781.785522,278.314728 
	C766.884033,287.660065 752.409973,296.737305 737.847046,305.870300 
	C741.694885,310.842865 744.931396,315.271545 748.480408,319.433777 
	C749.337158,320.438599 751.227356,320.562195 753.288147,320.772736 
z"/>
<path fill="#F9FDFC" opacity="1.000000" stroke="none" 
	d="
M633.031921,330.668854 
	C633.776245,330.738373 634.520508,330.807892 635.872070,330.935974 
	C636.650574,330.984497 636.821838,330.974487 636.993164,330.964478 
	C637.037415,337.742035 637.085022,344.519531 637.124084,351.297119 
	C637.136414,353.434387 637.125977,355.571808 637.125977,358.487457 
	C641.414978,357.040588 645.104553,355.795929 649.046509,354.466156 
	C645.482117,343.773346 643.819702,333.202759 644.936890,322.281158 
	C645.922058,312.650085 648.716187,303.730865 654.954773,296.151825 
	C659.677734,290.414185 665.582886,286.885956 673.248413,288.220734 
	C681.430542,289.645508 687.857971,293.821045 690.912292,301.925812 
	C695.129456,313.116272 692.619812,324.007538 688.337402,334.435883 
	C685.329285,341.761200 681.139221,348.601227 677.346924,355.908630 
	C681.206421,361.210083 686.720093,362.421692 693.599670,359.636414 
	C693.364563,351.728333 692.163452,344.050171 693.113281,336.648071 
	C695.272034,319.825775 713.179810,310.593109 728.673889,317.620636 
	C738.239258,321.959167 742.871887,331.532776 740.619690,342.489624 
	C740.064087,345.192810 739.247742,347.842407 738.158020,352.026367 
	C745.115479,348.339203 751.086548,345.294586 756.944092,342.045349 
	C768.705505,335.521149 780.146790,328.348755 792.242249,322.528778 
	C798.024902,319.746338 804.969116,318.411804 811.440735,318.219055 
	C827.160217,317.750885 837.056335,329.896881 834.576782,345.461670 
	C831.227539,366.485992 813.417236,382.877777 791.567810,385.028870 
	C789.601440,385.222443 787.626465,385.328308 785.319580,385.499908 
	C785.319580,378.316803 785.319580,371.395996 785.319580,364.522064 
	C790.305847,362.448914 795.288025,360.624359 800.033691,358.313873 
	C802.988098,356.875427 805.763611,354.916473 808.295654,352.803192 
	C811.323975,350.275696 811.871643,346.919952 810.096863,343.330444 
	C808.314087,339.724548 805.190796,339.037842 801.656372,339.881348 
	C799.756531,340.334717 797.853394,341.093445 796.170288,342.085388 
	C780.128723,351.539154 764.119751,361.048431 748.131531,370.592316 
	C739.323120,375.850342 730.091675,376.622101 720.308716,373.860260 
	C718.496948,373.348755 716.137878,373.660187 714.344849,374.376404 
	C701.334290,379.573425 687.959900,381.622498 674.343750,377.899780 
	C669.151306,376.480133 664.508240,373.051147 658.177979,369.799896 
	C652.561768,373.664764 645.168457,378.636322 637.962769,383.866425 
	C637.114075,384.482483 637.230713,386.508301 637.011414,387.898193 
	C635.931580,394.741058 635.748474,401.869537 633.631531,408.370605 
	C630.489136,418.020844 620.834412,423.472778 610.835815,422.728760 
	C599.488403,421.884338 591.726807,416.553497 589.521484,407.123535 
	C586.951416,396.133270 590.576111,386.650269 598.671021,379.127625 
	C602.142334,375.901703 606.359009,373.275360 610.630676,371.178650 
	C613.927673,369.560272 615.394775,367.924072 614.090759,364.572296 
	C608.344360,366.531311 602.741882,369.060760 596.867188,370.327881 
	C579.230042,374.132019 566.609680,360.208160 571.596436,342.795441 
	C574.790405,331.642853 582.062561,323.612701 591.584534,317.528625 
	C603.961670,309.620209 617.738647,306.377289 632.844177,305.871887 
	C632.844177,312.648041 632.844177,319.244904 632.444702,326.385406 
	C622.783020,329.305756 613.384033,331.263947 604.312805,334.225677 
	C599.350281,335.845886 595.693909,339.922089 594.294434,345.264343 
	C593.919189,346.697083 594.074341,348.941986 594.966003,349.829437 
	C595.738586,350.598389 598.100647,350.445557 599.412659,349.885681 
	C606.898865,346.690918 612.252563,341.106537 615.813904,333.899384 
	C617.018494,331.461639 618.248352,330.500977 621.090210,330.746918 
	C625.038940,331.088654 629.048462,330.728546 633.031921,330.668854 
M663.473145,326.623047 
	C663.935242,329.479309 664.397339,332.335571 664.979614,335.934570 
	C672.171509,329.855988 674.004272,316.472809 669.152222,310.960846 
	C664.448059,314.895020 664.316650,320.463928 663.473145,326.623047 
M722.124573,345.391937 
	C723.791931,341.484894 723.399048,337.769470 720.288208,334.880554 
	C719.412292,334.067108 716.917542,333.937286 715.838989,334.596375 
	C712.315002,336.749603 712.290833,340.538818 713.096375,343.966888 
	C713.528198,345.804810 715.136658,348.207245 716.714417,348.677979 
	C718.060486,349.079559 720.121460,347.084564 722.124573,345.391937 
M608.417297,394.948578 
	C607.995300,398.045868 608.475830,401.047699 612.117188,401.205872 
	C613.682495,401.273895 616.521729,399.284180 616.689148,397.963898 
	C616.949646,395.910339 616.049011,392.818665 614.510498,391.632141 
	C612.072388,389.751801 609.926758,391.690765 608.417297,394.948578 
z"/>
<path fill="#F9FDFC" opacity="1.000000" stroke="none" 
	d="
M447.853699,387.363831 
	C447.379639,360.776337 452.676941,336.437012 469.811218,315.696686 
	C470.811310,314.486176 471.244171,312.393921 471.152161,310.756348 
	C469.817230,287.002716 468.343567,263.256836 466.919861,239.508148 
	C466.841461,238.200272 466.909729,236.883621 466.909729,235.033585 
	C473.199402,235.033585 479.416565,235.033585 486.425903,235.033585 
	C487.948456,257.682587 489.493225,280.661591 491.069763,304.113464 
	C505.767303,303.468292 516.834473,309.034302 522.625183,320.942902 
	C529.020691,318.822662 534.870422,315.931641 541.005493,315.067871 
	C550.711487,313.701324 557.894836,318.815216 561.686462,327.463318 
	C564.175781,333.141113 565.817505,339.471130 566.385132,345.642761 
	C567.168518,354.160370 566.581604,362.804047 566.581604,371.399292 
	C558.784973,371.399292 552.029663,371.399292 545.000305,371.399292 
	C545.000305,363.989380 545.002197,357.016388 544.998962,350.043396 
	C544.998230,348.377563 545.105225,346.699829 544.947144,345.048187 
	C544.487183,340.241364 541.110229,336.837219 537.058594,336.958008 
	C533.151550,337.074493 530.149658,340.279358 529.930298,345.110748 
	C529.537720,353.756165 529.374084,362.412140 529.133179,371.064209 
	C529.087463,372.704102 529.126648,374.346375 529.126648,376.153839 
	C522.286499,376.153839 515.862488,376.153839 508.750183,376.153839 
	C508.445618,367.381104 508.164124,358.956390 507.855072,350.532715 
	C507.739136,347.373871 507.966705,344.126587 507.289062,341.086487 
	C506.664856,338.286102 505.650574,335.056519 503.686066,333.209290 
	C501.511963,331.164948 498.063721,330.475616 495.170380,329.196198 
	C494.462463,332.032867 492.893707,334.960968 493.183838,337.691589 
	C495.355865,358.136627 496.484924,378.534088 491.938202,398.806030 
	C490.252136,406.323578 487.570496,413.471649 481.795288,418.991241 
	C473.655548,426.770782 463.023010,426.038269 456.314636,417.029724 
	C449.880005,408.388794 448.255920,398.253326 447.853699,387.363831 
M467.998260,369.679352 
	C468.449463,377.388153 466.534790,385.392578 470.469696,393.065155 
	C476.613678,386.085175 478.057770,356.526215 472.561371,349.631378 
	C468.677826,355.627075 469.012451,362.344330 467.998260,369.679352 
z"/>
<path fill="#F9FDFC" opacity="1.000000" stroke="none" 
	d="
M150.937744,297.463379 
	C152.345276,315.069611 147.106888,330.755707 140.247238,346.071716 
	C138.170670,350.708191 138.944046,352.419281 143.963623,352.005432 
	C148.296082,351.648224 152.531754,350.117218 157.008453,349.058228 
	C157.008453,353.703308 157.265930,358.832062 156.849014,363.905426 
	C156.726517,365.396118 154.978027,367.332489 153.488297,368.039154 
	C142.299133,373.346710 131.619507,372.432312 121.453995,364.524048 
	C111.853973,370.182404 101.552719,373.810059 90.137093,374.381470 
	C71.393333,375.319641 55.562210,365.057343 51.621799,348.673370 
	C50.889843,345.629883 50.149757,342.305756 50.635704,339.309357 
	C51.730221,332.560516 49.729050,326.770599 47.329838,320.616669 
	C41.525528,305.728760 39.515682,290.420166 48.323456,275.959808 
	C57.772057,260.447418 72.565117,254.321960 90.245766,254.844925 
	C94.992897,254.985336 99.757896,256.214294 104.390427,257.420715 
	C105.646133,257.747742 107.266487,259.783630 107.321228,261.093628 
	C107.612099,268.053101 107.458015,275.031189 107.458015,282.678436 
	C94.224045,277.856506 81.951729,276.137695 71.722824,287.034973 
	C66.157211,292.964233 64.895981,300.884796 67.589508,309.051361 
	C77.063423,303.275391 86.809517,300.775330 96.080124,308.933624 
	C102.571526,314.646179 105.150223,322.370697 102.594391,330.679047 
	C98.632812,343.557037 87.232407,344.174652 75.906136,345.113739 
	C78.843750,350.380463 83.699890,352.312408 88.544540,351.633423 
	C95.150543,350.707520 101.641579,348.474548 107.919029,346.105438 
	C109.161201,345.636658 109.920013,341.941559 109.698158,339.862762 
	C108.488029,328.523712 108.434105,317.269043 111.022469,306.112183 
	C113.005661,297.563873 116.212509,289.586884 122.895958,283.519989 
	C132.998657,274.349243 144.671204,277.364349 149.126099,290.272095 
	C149.881775,292.461639 150.317581,294.761566 150.937744,297.463379 
M133.684021,319.875336 
	C133.848694,315.093719 135.323227,310.110992 131.906586,305.700653 
	C125.338715,309.940948 123.310524,325.887939 129.413483,331.972992 
	C130.901154,327.836517 132.182114,324.274780 133.684021,319.875336 
M82.552460,321.054138 
	C80.454575,321.471405 77.310272,321.230438 76.527458,322.474915 
	C75.579254,323.982239 75.875656,327.389893 77.050568,328.760651 
	C77.985039,329.850922 81.603645,329.963684 83.052078,329.015533 
	C86.088211,327.028015 85.668930,324.070770 82.552460,321.054138 
z"/>
<path fill="#F8FDFC" opacity="1.000000" stroke="none" 
	d="
M180.278564,280.300873 
	C196.964127,262.248627 217.765778,260.007660 240.154144,262.856903 
	C240.154144,270.105988 240.154144,276.874298 240.154144,284.104889 
	C236.016449,283.561279 232.306702,283.078979 228.598389,282.585815 
	C212.021637,280.381409 197.850113,287.219788 191.252197,300.610504 
	C183.955124,315.420227 186.859787,335.918060 197.857910,346.659912 
	C205.668320,354.288330 214.957138,355.752014 225.090027,352.614838 
	C228.233582,351.641571 231.155746,349.952393 234.177979,348.588165 
	C238.885727,346.463135 241.388779,343.625366 241.228134,337.648712 
	C240.947205,327.196838 253.782135,317.766418 263.042755,324.111969 
	C264.388519,319.804840 265.093750,314.993134 267.286865,310.998199 
	C274.443695,297.961334 288.947357,296.722626 298.639893,307.949402 
	C300.329559,309.906586 313.117676,318.217712 315.359772,319.426086 
	C319.389343,321.597656 323.209045,324.158661 327.536896,326.815063 
	C330.891571,323.197266 335.471283,320.651031 341.684265,321.930542 
	C341.684265,328.160004 341.684265,334.244812 341.684265,340.515778 
	C340.191772,340.993103 338.806030,341.463379 337.404236,341.879608 
	C333.016083,343.182587 330.806549,346.060150 330.837738,350.686218 
	C330.880127,356.979767 330.848297,363.273834 330.848297,369.728455 
	C324.739624,369.728455 319.468048,369.728455 313.852325,369.728455 
	C313.852325,364.037170 313.876556,358.602905 313.846375,353.168915 
	C313.806091,345.922424 310.781525,343.046173 303.354797,343.187622 
	C299.616028,358.063049 290.062927,366.924133 274.836884,368.057526 
	C268.862305,368.502228 262.515900,366.231140 256.613800,364.339081 
	C253.954163,363.486511 252.336975,363.635254 249.852646,364.652557 
	C240.539093,368.466278 231.276794,372.968933 221.533249,375.049164 
	C202.332825,379.148376 185.392746,371.003235 175.018921,354.393982 
	C161.135132,332.165039 163.264603,300.810760 180.278564,280.300873 
M265.148529,338.088135 
	C265.906921,340.619202 266.273499,343.361694 267.502411,345.638794 
	C270.369385,350.951141 278.250854,351.355133 281.880249,346.546478 
	C283.824036,343.971130 283.794525,341.732574 280.562531,340.039673 
	C275.294891,337.280518 270.099182,334.384094 265.100861,331.669312 
	C265.100861,332.697540 265.100861,334.971161 265.148529,338.088135 
M286.754883,323.606934 
	C286.688416,321.733154 286.867157,319.789886 286.370758,318.037872 
	C286.256897,317.636047 283.299744,317.323975 282.579712,317.983887 
	C281.592987,318.888184 280.709198,321.643829 281.163971,322.047211 
	C282.395050,323.139099 284.356171,323.407898 286.754883,323.606934 
z"/>
<path fill="#F8FCFC" opacity="1.000000" stroke="none" 
	d="
M427.674438,326.393707 
	C422.587769,338.360046 412.387848,343.987244 401.837585,349.164520 
	C406.820038,357.595612 412.426666,357.654358 430.910919,349.521576 
	C430.910919,355.886841 431.171295,362.169952 430.738373,368.404907 
	C430.621735,370.084473 428.712097,372.104797 427.095306,373.143036 
	C410.587524,383.743103 387.065582,375.802979 379.058777,357.076843 
	C378.018524,354.643951 377.156616,352.065796 375.686218,349.914337 
	C374.926086,348.802124 373.010986,348.479248 371.617737,347.799744 
	C371.074463,349.070648 370.090942,350.331451 370.061432,351.614166 
	C369.904938,358.422546 369.987885,365.236359 369.987885,372.419189 
	C363.478180,372.419189 357.442566,372.419189 351.216949,372.419189 
	C351.216949,362.237518 351.216949,352.460510 351.216949,342.416901 
	C349.922546,342.031067 348.563232,341.625854 347.267700,341.239655 
	C347.267700,335.200012 347.267700,329.401764 347.267700,323.264801 
	C349.342255,323.019806 351.244080,322.795197 353.699371,322.505249 
	C354.216156,315.627350 354.692902,308.706604 355.267822,301.794006 
	C355.831482,295.016724 356.494995,288.247742 357.131714,281.288605 
	C363.377808,281.288605 369.453888,281.288605 375.746704,281.288605 
	C374.407684,295.818115 373.097107,310.038818 371.776978,324.363403 
	C375.114319,326.130005 377.132172,325.552612 379.016357,322.136536 
	C383.834106,313.401917 390.008759,305.864380 399.638123,301.966797 
	C407.863403,298.637512 415.710938,299.196869 422.513458,305.115509 
	C428.963440,310.727356 430.327576,317.970551 427.674438,326.393707 
M403.461823,330.026398 
	C404.748810,328.131622 406.420563,326.378693 407.189301,324.292908 
	C407.713409,322.870880 406.975250,320.983643 406.801514,319.304413 
	C405.158661,319.761047 403.125061,319.769714 401.965851,320.780823 
	C400.290863,322.241821 398.946747,324.297119 398.047821,326.354980 
	C397.478912,327.657288 397.976959,329.425720 397.996460,330.985107 
	C399.624451,330.819244 401.252441,330.653381 403.461823,330.026398 
z"/>
<path fill="#F6FCFB" opacity="1.000000" stroke="none" 
	d="
M752.965210,320.931885 
	C751.227356,320.562195 749.337158,320.438599 748.480408,319.433777 
	C744.931396,315.271545 741.694885,310.842865 737.847046,305.870300 
	C752.409973,296.737305 766.884033,287.660065 781.785522,278.314728 
	C785.377991,284.487732 788.765076,290.307892 792.361450,296.487610 
	C779.151001,304.698273 766.219604,312.735504 752.965210,320.931885 
z"/>
<path fill="#177F5B" opacity="1.000000" stroke="none" 
	d="
M633.026489,330.276062 
	C629.048462,330.728546 625.038940,331.088654 621.090210,330.746918 
	C618.248352,330.500977 617.018494,331.461639 615.813904,333.899384 
	C612.252563,341.106537 606.898865,346.690918 599.412659,349.885681 
	C598.100647,350.445557 595.738586,350.598389 594.966003,349.829437 
	C594.074341,348.941986 593.919189,346.697083 594.294434,345.264343 
	C595.693909,339.922089 599.350281,335.845886 604.312805,334.225677 
	C613.384033,331.263947 622.783020,329.305756 632.460754,326.837891 
	C632.924561,327.792236 632.972839,328.837738 633.026489,330.276062 
z"/>
<path fill="#177F5B" opacity="1.000000" stroke="none" 
	d="
M636.925232,330.798035 
	C636.821838,330.974487 636.650574,330.984497 636.244507,330.888916 
	C636.292358,330.732758 636.574829,330.682159 636.925232,330.798035 
z"/>
<path fill="#167D5A" opacity="1.000000" stroke="none" 
	d="
M663.537842,326.211548 
	C664.316650,320.463928 664.448059,314.895020 669.152222,310.960846 
	C674.004272,316.472809 672.171509,329.855988 664.979614,335.934570 
	C664.397339,332.335571 663.935242,329.479309 663.537842,326.211548 
z"/>
<path fill="#107C57" opacity="1.000000" stroke="none" 
	d="
M721.995361,345.770813 
	C720.121460,347.084564 718.060486,349.079559 716.714417,348.677979 
	C715.136658,348.207245 713.528198,345.804810 713.096375,343.966888 
	C712.290833,340.538818 712.315002,336.749603 715.838989,334.596375 
	C716.917542,333.937286 719.412292,334.067108 720.288208,334.880554 
	C723.399048,337.769470 723.791931,341.484894 721.995361,345.770813 
z"/>
<path fill="#147C59" opacity="1.000000" stroke="none" 
	d="
M608.560608,394.595001 
	C609.926758,391.690765 612.072388,389.751801 614.510498,391.632141 
	C616.049011,392.818665 616.949646,395.910339 616.689148,397.963898 
	C616.521729,399.284180 613.682495,401.273895 612.117188,401.205872 
	C608.475830,401.047699 607.995300,398.045868 608.560608,394.595001 
z"/>
<path fill="#137B58" opacity="1.000000" stroke="none" 
	d="
M468.043335,369.206482 
	C469.012451,362.344330 468.677826,355.627075 472.561371,349.631378 
	C478.057770,356.526215 476.613678,386.085175 470.469696,393.065155 
	C466.534790,385.392578 468.449463,377.388153 468.043335,369.206482 
z"/>
<path fill="#137B58" opacity="1.000000" stroke="none" 
	d="
M133.573547,320.294189 
	C132.182114,324.274780 130.901154,327.836517 129.413483,331.972992 
	C123.310524,325.887939 125.338715,309.940948 131.906586,305.700653 
	C135.323227,310.110992 133.848694,315.093719 133.573547,320.294189 
z"/>
<path fill="#197E5B" opacity="1.000000" stroke="none" 
	d="
M82.839554,321.292328 
	C85.668930,324.070770 86.088211,327.028015 83.052078,329.015533 
	C81.603645,329.963684 77.985039,329.850922 77.050568,328.760651 
	C75.875656,327.389893 75.579254,323.982239 76.527458,322.474915 
	C77.310272,321.230438 80.454575,321.471405 82.839554,321.292328 
z"/>
<path fill="#137E5A" opacity="1.000000" stroke="none" 
	d="
M265.124695,337.666443 
	C265.100861,334.971161 265.100861,332.697540 265.100861,331.669312 
	C270.099182,334.384094 275.294891,337.280518 280.562531,340.039673 
	C283.794525,341.732574 283.824036,343.971130 281.880249,346.546478 
	C278.250854,351.355133 270.369385,350.951141 267.502411,345.638794 
	C266.273499,343.361694 265.906921,340.619202 265.124695,337.666443 
z"/>
<path fill="#1F7C5C" opacity="1.000000" stroke="none" 
	d="
M286.391296,323.805054 
	C284.356171,323.407898 282.395050,323.139099 281.163971,322.047211 
	C280.709198,321.643829 281.592987,318.888184 282.579712,317.983887 
	C283.299744,317.323975 286.256897,317.636047 286.370758,318.037872 
	C286.867157,319.789886 286.688416,321.733154 286.391296,323.805054 
z"/>
<path fill="#197E5B" opacity="1.000000" stroke="none" 
	d="
M403.171143,330.256958 
	C401.252441,330.653381 399.624451,330.819244 397.996460,330.985107 
	C397.976959,329.425720 397.478912,327.657288 398.047821,326.354980 
	C398.946747,324.297119 400.290863,322.241821 401.965851,320.780823 
	C403.125061,319.769714 405.158661,319.761047 406.801514,319.304413 
	C406.975250,320.983643 407.713409,322.870880 407.189301,324.292908 
	C406.420563,326.378693 404.748810,328.131622 403.171143,330.256958 
z"/>
</svg>